<?xml version="1.0" encoding="UTF-8"?>
<svg id="Layer_1" xmlns="http://www.w3.org/2000/svg" version="1.1" xmlns:serif="http://www.serif.com/" xmlns:xlink="http://www.w3.org/1999/xlink" viewBox="0 0 300 300">
  <!-- Generator: Adobe Illustrator 29.2.1, SVG Export Plug-In . SVG Version: 2.1.0 Build 116)  -->
  <defs>
    <style>
      .st0, .st1 {
        fill-rule: evenodd;
      }

      .st1 {
        fill: #d4af37;
      }
    </style>
  </defs>
  <g>
    <path class="st1" d="M226.7,153.3c-22.8-7.1-42.7-24.1-40-37.9,3.2-16.7,31-20.5,43.1-46.1,0,0-9.8,19.4-3.1,17.4,13.8-4.1,29.4-2.7,41-.6-4,.4-7.7.9-11.4,1.4-3.9.6-7.6,1.2-11.1,1.8-42.8,8.1-56.3,24-44,41.2,2.4,3.3,6.1-1.7,5.7-8.3,5,19.4,12.3,24.8,19.8,31.1Z"/>
    <path class="st0" d="M226.4,68.6c.2-.5.4-.8.4-.8.8-1.6,2.8-2.3,4.4-1.5,1.6.8,2.3,2.8,1.6,4.4-.2.4-.4.8-.6,1.3-1,2.1-3.1,6.7-4.1,10.3,0,.2,0,.4-.1.6,13.7-3.5,28.9-2.1,40.3,0,1.6.3,2.8,1.8,2.7,3.4,0,1.7-1.3,3-3,3.2-3.9.4-7.7.9-11.2,1.4-3.8.5-7.5,1.1-11,1.8-20.5,3.9-34.1,9.4-40.9,16.3-2.9,2.9-4.5,6-4.7,9.3-.1,2.8.8,5.7,2.6,8.7.4-1.2.9-2.9.8-4.4-.1-1.7,1.1-3.2,2.8-3.5,1.7-.3,3.3.8,3.7,2.5,4.7,18.3,11.6,23.4,18.7,29.3,1.2,1,1.6,2.8.8,4.2-.8,1.4-2.4,2.1-3.9,1.6-14.3-4.5-27.5-12.7-35.2-21.7-5.7-6.6-8.3-13.7-7.1-20,1.4-7.5,7-12.8,14.4-18.1,9.3-6.8,21.6-13.8,28.6-28.1ZM229.2,70.4c-12.4,24.6-39.3,28.6-42.5,45-2.7,13.8,17.2,30.7,40,37.9-7.6-6.3-14.9-11.6-19.8-31.1.4,6.6-3.3,11.7-5.7,8.3-12.3-17.2,1.2-33.1,44-41.2,3.5-.7,7.2-1.3,11.1-1.8,3.6-.5,7.4-1,11.4-1.4-11.6-2.1-27.2-3.6-41,.6-5.7,1.7.6-12.2,2.5-16.3ZM229.2,70.4c.2-.4.4-.7.5-1.1,0,0-.2.4-.5,1.1Z"/>
  </g>
  <g>
    <path class="st0" d="M23.4,117.1c50.4-52.5,86.4-58.3,130.1-39.6-6.2-5.2-12.9-10.7-34.4-14.8,12.4-.8,17.2-.6,25.9,2.7-15.7-13-32.7-16.3-45.3-14.8,0,0,6.3,1.5,4,6-4.1,7.9-13.9-4-13.9-4-20.6,5.8-44.2,31.8-66.3,64.5Z"/>
    <path class="st1" d="M100.8,54.8c-.1-.1-.5-.4-.7-.5-.6-.3-1.3-.5-1.3-.5-1.6-.4-2.7-1.8-2.6-3.4,0-1.6,1.3-2.9,2.9-3.1,13.3-1.6,31.2,1.7,47.8,15.5,1.3,1,1.6,2.8.8,4.2-.3.6-.8,1-1.4,1.3,3.8,2.2,6.5,4.5,9.1,6.7,1.3,1.1,1.5,2.9.7,4.3-.9,1.4-2.6,2-4.1,1.3-16.9-7.2-32.6-10.7-48.4-9-24,2.6-48.4,17.1-77.9,47.8-1.2,1.2-3.2,1.4-4.5.3-1.3-1.1-1.6-3-.7-4.5,22.7-33.6,47.1-59.9,68.2-65.9,1.3-.4,2.6,0,3.5,1.1,0,0,2.1,2.6,4.7,4.4.6.4,1.2.8,1.9,1,.4.1.8.3,1.1.2.3-.1.5-.5.7-.9,0,0,0-.2.1-.3ZM23.4,117.1c50.4-52.5,86.4-58.3,130.1-39.6-6.2-5.2-12.9-10.7-34.4-14.8,12.4-.8,17.2-.6,25.9,2.7-15.7-13-32.7-16.3-45.3-14.8,0,0,6.3,1.5,4,6-4.1,7.9-13.9-4-13.9-4-20.6,5.8-44.2,31.8-66.3,64.5Z"/>
  </g>
  <g>
    <path class="st0" d="M121.9,80.7c53.1,24,48.9,39-26.4,71.7,9.4-2.4,12.7,1.9,6.6,10.4,27.2-8.4,55.8-27.9,55.8-27.9,0,0-10-1-5.2-5.9,5.3-5.4,11.6-1,12.6-2.4,16.5-24,5.9-38.2-43.3-45.9Z"/>
    <path class="st1" d="M155.6,130.8l2.6.7c1.4.1,2.5,1.1,2.9,2.5.3,1.4-.2,2.8-1.4,3.6,0,0-29,19.8-56.7,28.3-1.4.4-2.9,0-3.7-1.2s-.8-2.7,0-3.9c1.2-1.7,2.1-3.2,2.4-4.5.1-.4.3-.8.1-1-.2-.2-.5-.2-.9-.2-1.2-.2-2.8,0-4.6.5-1.7.4-3.4-.5-4-2.2-.6-1.6.2-3.4,1.8-4.1,26.6-11.5,44.3-20.8,53.4-29.1,5-4.5,7.4-8.5,6.4-12.6-.7-2.8-2.8-5.5-6.1-8.3-5.8-4.9-15-10-27.4-15.6-1.5-.7-2.3-2.4-1.8-4,.5-1.6,2.1-2.6,3.7-2.3,18.2,2.8,31.3,6.6,39.8,11.3,6.3,3.5,10.2,7.6,12.1,12.2,3.2,7.5,1.1,16.7-6.4,27.5-.7,1.1-2.1,1.9-4.2,1.7-.7,0-1.7-.3-2.9-.5-1.5-.2-3.5-.4-5.3,1.1ZM121.9,80.7c53.1,24,48.9,39-26.4,71.7,9.4-2.4,12.7,1.9,6.6,10.4,27.2-8.4,55.8-27.9,55.8-27.9,0,0-10-1-5.2-5.9,5.3-5.4,11.6-1,12.6-2.4,16.5-24,5.9-38.2-43.3-45.9Z"/>
  </g>
  <path class="st0" d="M14.1,93.6c71.9-10.5,57.8,22.5,56.1,65.3,0,2.3-5.6,21.8-5.6,21.8,5.4-6.8,5.2-10.6,9.8-11.1,2.6,7.3-9.6,44-22.1,61.1,19.8-21.4,24-18.8,34,0-.3-12.3-16.6-44.7-7.3-41.3,3.7,1.3,9.3,11.8,9.3,11.8,0,0-3.4-15.4-3.6-18.5-3.8-86.5,7-108.3-70.7-89.1Z"/>
  <path class="st1" d="M79.9,194.2c.2,1.1.5,2.4.9,3.8,2.8,10,8.8,25,9,32.6,0,1.5-1,2.9-2.5,3.3-1.5.4-3.1-.3-3.8-1.6-2.4-4.5-4.4-8-6.4-10.4-1.4-1.7-2.7-2.8-4.2-2.9-1.8-.1-3.7.9-6.2,2.8-3.2,2.4-7,6.1-11.8,11.3-1.2,1.3-3.2,1.4-4.6.3-1.4-1.1-1.6-3.1-.6-4.5,8.6-11.6,16.9-32.7,20.3-46.7.4-1.6.7-3.1,1-4.5-.9,1.5-2.1,3.3-3.7,5.4-1,1.2-2.7,1.6-4.1.9-1.4-.7-2.1-2.3-1.7-3.9,0,0,5.4-18.8,5.5-21.1.6-15.3,2.8-29.3,2.1-40.5-.5-6.6-1.9-12.2-5.9-16.2-3.4-3.4-8.4-5.5-15.8-6.5-8.1-1.1-18.7-.7-32.7,1.4-1.8.3-3.4-.9-3.8-2.7-.3-1.7.7-3.5,2.5-3.9,19.1-4.7,32.9-7,43-6.5,7.4.3,12.9,2.1,17.1,5.2,6.2,4.6,9.6,12.3,11.4,23.7,2.4,15.6,1.9,38.4,3.3,69.7.1,3,3.5,17.9,3.5,17.9.4,1.6-.5,3.3-2.1,3.9-1.6.6-3.3,0-4.1-1.6,0,0-1.9-3.5-4.2-6.7-.5-.6-1-1.3-1.4-1.8ZM14.1,93.6c71.9-10.5,57.8,22.5,56.1,65.3,0,2.3-5.6,21.8-5.6,21.8,5.4-6.8,5.2-10.6,9.8-11.1,2.6,7.3-9.6,44-22.1,61.1,19.8-21.4,24-18.8,34,0-.3-12.3-16.6-44.7-7.3-41.3,3.7,1.3,9.3,11.8,9.3,11.8,0,0-3.4-15.4-3.6-18.5-3.8-86.5,7-108.3-70.7-89.1Z"/>
  <g>
    <path class="st0" d="M94.3,182.8c.9,1.4.4,4.8,3.1,7.5,2,2,7.3,3.2,7.7,4.8.2.9-6.7-1.3-6.5-.4.6,3.1,1.1,6.4,1.4,9.9,16.9-.7,31,5.3,44.4,12.6,0,0,10.9,5.9,11.9,9.3.9,3.2-6.2,11.4-6.2,11.4,0,0,6.1-2.9,8.4-4.5,2.5-1.7,11,1.4,11,1.4,6.5.6,10.3-1.6,11.4-6.5,0,0-6.8,0-9.6-1.5-3.7-2-12.8-10.5-12.8-10.5v-6.4l-8.4,2.3-15.4-7.1c-5.3,1.4,5.5-4.1,4.3-4.1-8.1-.2-11.4,3.1-18.2-2.8-4.3-3.7-9.5-8.7-14.3-10.8,0,0,8.6,2.8,13.7,2.9,12.3.2,27.6,7.5,38.4,7.9,5.3.2,9.5,3.3,14.5,6.7,3.1,2.1,8.5,1.8,8.5,1.8,0,0-10.9,4.1-9.8,4.5,1.1.4,12.2-2.2,16.3-2,2.5.1,7.5,1.9,7.5,1.9.9-1.7,1.4-8.6,1.4-8.6l-2.3.2s1.8,5.5-5.4.3c-.4-.3,5.4-.3,5.4-.3l2.3-.2s.4-3.6-2.1-4.7c-9.1,2.4-24.2-1.7-44.7-11.7-1.1-.3-3.2-1.7-3.2-1.7l-4.1-1.8s-11.5,5.7-12.6.1c-.2-1,0-3.5.9-3,3.3,2.2,11.6,3.6,11.7,2.8l4.1,1.8s-5.7-7.3-6.1-8.1c-6.5.1-8-1.8-12.6-4.3-5.5-1.5-12.6.1-16.7-6.5-4.8-3.8-11.6-6.8-18.5-8.4-3.8-.9-10.2-1.1-10.2-1.1,0,0,7.7,2.4,14.8,7,5.5,3.6,10.6,10.5,9.5,13.3,0,0-11,1.7-12.8,4.7-.3.6-.4,1.1,0,1.8Z"/>
    <path class="st1" d="M149.3,181.9c.5.3,1.3.8,1.8,1,.2,0,.4.1.5.2,12,5.9,22.1,9.7,30.2,11.2,4.9,1,9,1.1,12.2.2.7-.2,1.5-.1,2.2.2,2,.9,3.1,2.5,3.6,4.1.5,1.7.5,3.3.4,3.8,0,0-.2,3.6-.7,6.4-.3,1.6-.7,2.9-1.1,3.7-.8,1.4-2.5,2.1-4,1.5,0,0-4.4-1.6-6.6-1.7-3.1-.2-10.6,1.5-14,1.9-1.7.2-2.9,0-3.4-.1-.3-.1-.5-.3-.7-.4l-.6-.5-.5-.7-.3-.8c-.2-.8-.3-2.1,1-3.3.3-.3.8-.7,1.6-1.1-4.3-2.9-8-5.9-12.6-6-5.6-.2-12.4-2.2-19.4-4.2-6.2-1.8-12.6-3.6-18.4-3.7.8.7,1.6,1.4,2.3,2,3.1,2.7,5.2,2.9,7.8,2.7,2.4-.2,5-.7,8.4-.6l1.4.3,1,.8.5.7.3.8v1.4s-.6,1.3-.6,1.3c-.1.2-.6.6-1.2,1.1l9.9,4.5,7.2-2c1-.3,2.1,0,2.9.6.8.6,1.3,1.6,1.3,2.7v5c2.4,2.2,8.3,7.5,11,9,2.4,1.3,8,1.1,8,1.1,1,0,2,.4,2.6,1.2.6.8.9,1.8.7,2.8-.6,2.8-1.9,4.9-3.7,6.4-2.5,2.1-6.2,3.2-11.2,2.7-.3,0-.6,0-.8-.2,0,0-2.8-1-5.5-1.5-.9-.2-2.4-.2-2.7-.2-2.6,1.7-8.6,4.6-8.6,4.6-1.4.7-3.1.3-4.1-1-1-1.2-.9-3,.1-4.2,0,0,2.4-2.7,4.1-5.6.5-.9,1.1-2.3,1.3-2.9-.3-.4-1.1-1.2-1.8-1.8-3.3-2.7-8.3-5.4-8.3-5.4h0c-12.9-7-26.4-12.9-42.7-12.2-1.8,0-3.3-1.3-3.5-3.1-.3-3.4-.7-6.5-1.3-9.5v-1.1c0,0,.3-1.1.3-1.1-.2-.2-.4-.3-.6-.5-1.8-1.8-2.7-3.9-3.1-5.8-.2-.9-.5-2.3-.5-2.4-1.1-1.9-.9-3.6,0-5.2.8-1.3,2.7-2.7,5.2-3.7,2.1-.8,4.6-1.5,6.6-1.9,0-.2-.2-.3-.3-.5-1.5-2.6-4.3-5.5-7.2-7.4-6.7-4.4-14-6.6-14-6.6-1.6-.5-2.6-2.1-2.3-3.7.3-1.7,1.7-2.8,3.4-2.8,0,0,6.8.3,10.8,1.2,7.3,1.7,14.6,4.9,19.8,9,.3.2.6.5.8.8,1.9,3,4.6,3.5,7.2,3.9,2.6.3,5.2.5,7.5,1.1.3,0,.5.2.7.3,4,2.2,5.2,4,10.9,3.9,1.2,0,2.4.6,3,1.7.3.6,4.3,5.7,5.5,7.2ZM147,184.3s-5.7-7.3-6.1-8.1c-6.5.1-8-1.8-12.6-4.3-5.5-1.5-12.6.1-16.7-6.5-4.8-3.8-11.6-6.8-18.5-8.4-3.8-.9-10.2-1.1-10.2-1.1,0,0,7.7,2.4,14.8,7,5.5,3.6,10.6,10.5,9.5,13.3,0,0-11,1.7-12.8,4.7-.3.6-.4,1.1,0,1.8.9,1.4.4,4.8,3.1,7.5,2,2,7.3,3.2,7.7,4.8.2.9-6.7-1.3-6.5-.4.6,3.1,1.1,6.4,1.4,9.9,16.9-.7,31,5.3,44.4,12.6,0,0,10.9,5.9,11.9,9.3.9,3.2-6.2,11.4-6.2,11.4,0,0,6.1-2.9,8.4-4.5,2.5-1.7,11,1.4,11,1.4,6.5.6,10.3-1.6,11.4-6.5,0,0-6.8,0-9.6-1.5-3.7-2-12.8-10.5-12.8-10.5v-6.4l-8.4,2.3-15.4-7.1c-5.3,1.4,5.5-4.1,4.3-4.1-8.1-.2-11.4,3.1-18.2-2.8-4.3-3.7-9.5-8.7-14.3-10.8,0,0,8.6,2.8,13.7,2.9,12.3.2,27.6,7.5,38.4,7.9,5.3.2,9.5,3.3,14.5,6.7,3.1,2.1,8.5,1.8,8.5,1.8,0,0-10.9,4.1-9.8,4.5,1.1.4,12.2-2.2,16.3-2,2.5.1,7.5,1.9,7.5,1.9.9-1.7,1.4-8.6,1.4-8.6,0,0,.4-3.6-2.1-4.7-9.1,2.4-24.2-1.7-44.7-11.7-1.1-.3-3.2-1.7-3.2-1.7ZM194.7,202.6s1.8,5.5-5.4.3c-.4-.3,5.4-.3,5.4-.3ZM142.5,182.7c-2,.9-11.2,5-12.2,0-.2-1,0-3.5.9-3,2.9,1.9,9.7,3.2,11.3,3,.2-.1.4-.2.4-.2,0,0-.1.1-.4.2Z"/>
  </g>
  <g>
    <path class="st1" d="M178.9,218.1c34.1,9.4,60.9,5.1,78.2-17.9,2.4-3.2-6.6,14.7-2.8,14.5,8.5-.4,14.9-10.8,20.2-20.3-2.9,17.5-8.1,24.2-20.9,28.7-5.7,2-13.6,3.6-13.6,3.6,3.7,6.6,6.1,5.4,17.9,6.4-26.3,4.6-44.7.6-79-15Z"/>
    <path class="st0" d="M257.3,210.6c2.1-1,4-2.7,5.8-4.8,3.2-3.7,6-8.5,8.5-13,.8-1.4,2.5-2,4-1.5,1.5.5,2.4,2.1,2.2,3.7-1.9,11.4-4.8,18.5-9.8,23.5-3.4,3.4-7.7,5.8-13.4,7.8-2.7.9-5.8,1.8-8.4,2.4.9.3,2.1.4,3.5.5,2.1.2,4.8.3,8.4.5,1.7.1,3,1.5,3.1,3.2,0,1.7-1.1,3.2-2.8,3.4-26.9,4.7-45.9.7-80.9-15.2-1.6-.7-2.3-2.5-1.8-4.2.6-1.6,2.3-2.5,4-2.1,32.5,9,58.2,5.2,74.6-16.7,2.6-3.5,5.6-.7,6,0,.2.3.7,1.5.1,3.3-.5,1.4-1.9,4.8-2.9,7.9-.1.3-.2.7-.3,1.1ZM178.9,218.1c34.2,15.6,52.7,19.6,79,15-11.8-.9-14.2.2-17.9-6.4,0,0,7.8-1.6,13.6-3.6,12.9-4.5,18.1-11.2,20.9-28.7-5.3,9.5-11.7,19.9-20.2,20.3-3.8.2,5.2-17.7,2.8-14.5-17.2,23-44.1,27.4-78.2,17.9Z"/>
  </g>
  <g>
    <path class="st1" d="M263.3,201.1c1.7-24.2-18.7-27.3-67.2-33,15.5-2.1,20.6.4,23.2-4.4-24.9-8-36.3-16.7-40.3-41.5,4.4,22.3,30,34.7,60,41.5,3.7.8,8.6-4.2.5-14.4,26.3,25.3,32.8,35.7,23.8,51.8Z"/>
    <path class="st0" d="M209.3,163.8c-10.9-4.3-18.8-9.2-24.3-16.5-4.7-6.1-7.7-13.9-9.4-24.5-.3-1.8.9-3.5,2.7-3.8,1.8-.3,3.5.8,3.9,2.6,2,10.3,9.1,18.2,18.9,24.4,10.4,6.6,24,11.2,38.6,14.5.3,0,.6-.3.7-.7.5-1.8-.5-4.5-3.6-8.3-1.1-1.4-.9-3.4.4-4.5,1.3-1.2,3.3-1.2,4.6,0,10.8,10.3,18.2,18.3,22.8,25.1,3.7,5.6,5.6,10.6,5.8,15.4.2,4.9-1.2,9.8-4.2,15.3-.8,1.4-2.4,2-3.9,1.6-1.5-.4-2.5-1.9-2.4-3.4.4-5.2-.4-9.3-2.5-12.6-2.1-3.3-5.5-5.6-10.3-7.6-10.8-4.4-27.7-6.5-51.6-9.3-1.7-.2-2.9-1.6-2.9-3.3,0-1.7,1.2-3.1,2.9-3.3,5.9-.8,10.4-1,13.7-1.1ZM263.3,201.1c9-16.1,2.5-26.5-23.8-51.8,8.1,10.1,3.2,15.2-.5,14.4-30-6.8-55.6-19.2-60-41.5,4,24.8,15.4,33.5,40.3,41.5-2.6,4.8-7.7,2.3-23.2,4.4,48.5,5.7,68.9,8.7,67.2,33Z"/>
  </g>
  <g>
    <path class="st1" d="M247.8,94.9c23.6,3,32.7,12.3,28.4,27.3,0,0,12.2-14-3.7-24.5-9.5-6.2-24.7-2.9-24.7-2.9Z"/>
    <path class="st0" d="M247.1,91.6s16.7-3.6,27.2,3.3c5.7,3.7,8.3,8,9.3,11.9,2.3,9.3-4.8,17.6-4.8,17.6-1,1.2-2.7,1.5-4.1.7-1.4-.7-2-2.3-1.6-3.8,1.4-4.9,1.2-9.1-1-12.5-3.6-5.6-11.8-8.9-24.7-10.6-1.6-.2-2.8-1.5-2.9-3.2,0-1.6,1-3.1,2.6-3.4ZM247.8,94.9c23.6,3,32.7,12.3,28.4,27.3,0,0,12.2-14-3.7-24.5-9.5-6.2-24.7-2.9-24.7-2.9Z"/>
  </g>
  <g>
    <path class="st1" d="M205.1,206.4c13.1-4,14.3-4,22-12,0,0-6,8.8-4.1,11,1.9,2.2,15.4,2.2,15.4,2.2-6.8,3.2-18.1,3.7-33.3-1.2Z"/>
    <path class="st0" d="M226.2,203.2c.5.1,1,.3,1.5.3,4.4.7,10.7.7,10.7.7,1.6,0,2.9,1.1,3.3,2.6.3,1.5-.4,3.1-1.8,3.7-7.3,3.4-19.4,4.2-35.7-1-1.4-.4-2.3-1.7-2.3-3.2,0-1.5,1-2.7,2.3-3.2,12.2-3.8,13.4-3.6,20.6-11.2,1.2-1.2,3.2-1.4,4.5-.3,1.3,1.1,1.6,3,.7,4.5,0,0-2,2.9-3.2,5.7-.2.4-.3.9-.5,1.3ZM205.1,206.4c15.2,4.9,26.5,4.4,33.3,1.2,0,0-13.5,0-15.4-2.2-1.9-2.2,4.1-11,4.1-11-7.7,8-8.9,8-22,12Z"/>
  </g>
</svg>