<?xml version="1.0" encoding="UTF-8" standalone="no"?>
<!DOCTYPE svg PUBLIC "-//W3C//DTD SVG 1.1//EN" "http://www.w3.org/Graphics/SVG/1.1/DTD/svg11.dtd">
<svg width="100%" height="100%" viewBox="0 0 25394 1240" version="1.1" xmlns="http://www.w3.org/2000/svg" xmlns:xlink="http://www.w3.org/1999/xlink" xml:space="preserve" xmlns:serif="http://www.serif.com/" style="fill-rule:evenodd;clip-rule:evenodd;stroke-linejoin:round;stroke-miterlimit:2;">
    <g transform="matrix(-0.94996,-0.31237,0.31237,-0.94996,2638.216869,2444.508808)">
        <path d="M78.392,1854.956C708.12,1198.418 1159.008,1126.434 1704.37,1360.177C1627.277,1294.715 1543.194,1226.354 1274.71,1174.607C1429.549,1164.957 1489.199,1166.907 1598.516,1207.757C1401.699,1044.745 1190.073,1004.147 1031.932,1023.203C1031.932,1023.203 1110.972,1041.823 1082.021,1098.445C1031.283,1197.675 907.88,1047.944 907.88,1047.944C650.071,1120.856 354.918,1445.15 78.392,1854.956Z"/>
        <path d="M1046.287,1076.074C1044.493,1074.576 1040.529,1071.354 1038.094,1070.038C1030.01,1065.67 1022.378,1063.759 1022.378,1063.759C1002.713,1059.127 989.205,1041.054 990.33,1020.882C991.455,1000.71 1006.889,984.252 1026.948,981.835C1193.815,961.728 1417.415,1003.66 1625.093,1175.668C1640.757,1188.641 1644.766,1211.027 1634.578,1228.629C1630.446,1235.767 1624.471,1241.273 1617.555,1244.821C1664.886,1272.337 1698.685,1300.688 1731.34,1328.415C1747.053,1341.759 1750.648,1364.587 1739.795,1382.113C1728.942,1399.64 1706.904,1406.595 1687.956,1398.474C1477.037,1308.074 1280.866,1264.259 1082.265,1285.705C781.628,1318.169 477.137,1499.428 108.462,1883.798C93.488,1899.411 69.056,1900.966 52.222,1887.379C35.389,1873.792 31.753,1849.582 43.853,1831.65C327.151,1411.808 632.418,1082.548 896.541,1007.85C912.452,1003.35 929.518,1008.684 940.034,1021.444C940.034,1021.444 966.828,1054.062 999.187,1075.838C1006.721,1080.908 1014.545,1085.408 1022.411,1088.28C1027.383,1090.095 1032.191,1092.397 1036.553,1090.251C1040.055,1088.529 1042.314,1084.576 1044.922,1079.476C1045.428,1078.486 1045.938,1077.097 1046.287,1076.074ZM78.392,1854.956C708.12,1198.418 1159.008,1126.434 1704.37,1360.177C1627.277,1294.715 1543.194,1226.354 1274.71,1174.607C1429.549,1164.957 1489.199,1166.907 1598.516,1207.757C1401.699,1044.745 1190.073,1004.147 1031.932,1023.203C1031.932,1023.203 1110.972,1041.823 1082.021,1098.445C1031.283,1197.675 907.88,1047.944 907.88,1047.944C650.071,1120.856 354.918,1445.15 78.392,1854.956Z" style="fill:rgb(212,175,55);"/>
    </g>
    <g transform="matrix(-0.96461,-0.263681,0.263681,-0.96461,6357.52809,2429.979298)">
        <path d="M78.392,1854.956C708.12,1198.418 1159.008,1126.434 1704.37,1360.177C1627.277,1294.715 1543.194,1226.354 1274.71,1174.607C1429.549,1164.957 1489.199,1166.907 1598.516,1207.757C1401.699,1044.745 1190.073,1004.147 1031.932,1023.203C1031.932,1023.203 1110.972,1041.823 1082.021,1098.445C1031.283,1197.675 907.88,1047.944 907.88,1047.944C650.071,1120.856 354.918,1445.15 78.392,1854.956Z"/>
        <path d="M1046.287,1076.074C1044.493,1074.576 1040.529,1071.354 1038.094,1070.038C1030.01,1065.67 1022.378,1063.759 1022.378,1063.759C1002.713,1059.127 989.205,1041.054 990.33,1020.882C991.455,1000.71 1006.889,984.252 1026.948,981.835C1193.815,961.728 1417.415,1003.66 1625.093,1175.668C1640.757,1188.641 1644.766,1211.027 1634.578,1228.629C1630.446,1235.767 1624.471,1241.273 1617.555,1244.821C1664.886,1272.337 1698.685,1300.688 1731.34,1328.415C1747.053,1341.759 1750.648,1364.587 1739.795,1382.113C1728.942,1399.64 1706.904,1406.595 1687.956,1398.474C1477.037,1308.074 1280.866,1264.259 1082.265,1285.705C781.628,1318.169 477.137,1499.428 108.462,1883.798C93.488,1899.411 69.056,1900.966 52.222,1887.379C35.389,1873.792 31.753,1849.582 43.853,1831.65C327.151,1411.808 632.418,1082.548 896.541,1007.85C912.452,1003.35 929.518,1008.684 940.034,1021.444C940.034,1021.444 966.828,1054.062 999.187,1075.838C1006.721,1080.908 1014.545,1085.408 1022.411,1088.28C1027.383,1090.095 1032.191,1092.397 1036.553,1090.251C1040.055,1088.529 1042.314,1084.576 1044.922,1079.476C1045.428,1078.486 1045.938,1077.097 1046.287,1076.074ZM78.392,1854.956C708.12,1198.418 1159.008,1126.434 1704.37,1360.177C1627.277,1294.715 1543.194,1226.354 1274.71,1174.607C1429.549,1164.957 1489.199,1166.907 1598.516,1207.757C1401.699,1044.745 1190.073,1004.147 1031.932,1023.203C1031.932,1023.203 1110.972,1041.823 1082.021,1098.445C1031.283,1197.675 907.88,1047.944 907.88,1047.944C650.071,1120.856 354.918,1445.15 78.392,1854.956Z" style="fill:rgb(212,175,55);"/>
    </g>
    <g transform="matrix(-0.98681,-0.161881,0.161881,-0.98681,10092.170935,2369.757221)">
        <path d="M78.392,1854.956C708.12,1198.418 1159.008,1126.434 1704.37,1360.177C1627.277,1294.715 1543.194,1226.354 1274.71,1174.607C1429.549,1164.957 1489.199,1166.907 1598.516,1207.757C1401.699,1044.745 1190.073,1004.147 1031.932,1023.203C1031.932,1023.203 1110.972,1041.823 1082.021,1098.445C1031.283,1197.675 907.88,1047.944 907.88,1047.944C650.071,1120.856 354.918,1445.15 78.392,1854.956Z"/>
        <path d="M1046.287,1076.074C1044.493,1074.576 1040.529,1071.354 1038.094,1070.038C1030.01,1065.67 1022.378,1063.759 1022.378,1063.759C1002.713,1059.127 989.205,1041.054 990.33,1020.882C991.455,1000.71 1006.889,984.252 1026.948,981.835C1193.815,961.728 1417.415,1003.66 1625.093,1175.668C1640.757,1188.641 1644.766,1211.027 1634.578,1228.629C1630.446,1235.767 1624.471,1241.273 1617.555,1244.821C1664.886,1272.337 1698.685,1300.688 1731.34,1328.415C1747.053,1341.759 1750.648,1364.587 1739.795,1382.113C1728.942,1399.64 1706.904,1406.595 1687.956,1398.474C1477.037,1308.074 1280.866,1264.259 1082.265,1285.705C781.628,1318.169 477.137,1499.428 108.462,1883.798C93.488,1899.411 69.056,1900.966 52.222,1887.379C35.389,1873.792 31.753,1849.582 43.853,1831.65C327.151,1411.808 632.418,1082.548 896.541,1007.85C912.452,1003.35 929.518,1008.684 940.034,1021.444C940.034,1021.444 966.828,1054.062 999.187,1075.838C1006.721,1080.908 1014.545,1085.408 1022.411,1088.28C1027.383,1090.095 1032.191,1092.397 1036.553,1090.251C1040.055,1088.529 1042.314,1084.576 1044.922,1079.476C1045.428,1078.486 1045.938,1077.097 1046.287,1076.074ZM78.392,1854.956C708.12,1198.418 1159.008,1126.434 1704.37,1360.177C1627.277,1294.715 1543.194,1226.354 1274.71,1174.607C1429.549,1164.957 1489.199,1166.907 1598.516,1207.757C1401.699,1044.745 1190.073,1004.147 1031.932,1023.203C1031.932,1023.203 1110.972,1041.823 1082.021,1098.445C1031.283,1197.675 907.88,1047.944 907.88,1047.944C650.071,1120.856 354.918,1445.15 78.392,1854.956Z" style="fill:rgb(212,175,55);"/>
    </g>
    <g transform="matrix(0.898606,0.438756,-0.438756,0.898606,4037.216891,-1112.552667)">
        <path d="M78.392,1854.956C708.12,1198.418 1159.008,1126.434 1704.37,1360.177C1627.277,1294.715 1543.194,1226.354 1274.71,1174.607C1429.549,1164.957 1489.199,1166.907 1598.516,1207.757C1401.699,1044.745 1190.073,1004.147 1031.932,1023.203C1031.932,1023.203 1110.972,1041.823 1082.021,1098.445C1031.283,1197.675 907.88,1047.944 907.88,1047.944C650.071,1120.856 354.918,1445.15 78.392,1854.956Z"/>
        <path d="M1046.287,1076.074C1044.493,1074.576 1040.529,1071.354 1038.094,1070.038C1030.01,1065.67 1022.378,1063.759 1022.378,1063.759C1002.713,1059.127 989.205,1041.054 990.33,1020.882C991.455,1000.71 1006.889,984.252 1026.948,981.835C1193.815,961.728 1417.415,1003.66 1625.093,1175.668C1640.757,1188.641 1644.766,1211.027 1634.578,1228.629C1630.446,1235.767 1624.471,1241.273 1617.555,1244.821C1664.886,1272.337 1698.685,1300.688 1731.34,1328.415C1747.053,1341.759 1750.648,1364.587 1739.795,1382.113C1728.942,1399.64 1706.904,1406.595 1687.956,1398.474C1477.037,1308.074 1280.866,1264.259 1082.265,1285.705C781.628,1318.169 477.137,1499.428 108.462,1883.798C93.488,1899.411 69.056,1900.966 52.222,1887.379C35.389,1873.792 31.753,1849.582 43.853,1831.65C327.151,1411.808 632.418,1082.548 896.541,1007.85C912.452,1003.35 929.518,1008.684 940.034,1021.444C940.034,1021.444 966.828,1054.062 999.187,1075.838C1006.721,1080.908 1014.545,1085.408 1022.411,1088.28C1027.383,1090.095 1032.191,1092.397 1036.553,1090.251C1040.055,1088.529 1042.314,1084.576 1044.922,1079.476C1045.428,1078.486 1045.938,1077.097 1046.287,1076.074ZM78.392,1854.956C708.12,1198.418 1159.008,1126.434 1704.37,1360.177C1627.277,1294.715 1543.194,1226.354 1274.71,1174.607C1429.549,1164.957 1489.199,1166.907 1598.516,1207.757C1401.699,1044.745 1190.073,1004.147 1031.932,1023.203C1031.932,1023.203 1110.972,1041.823 1082.021,1098.445C1031.283,1197.675 907.88,1047.944 907.88,1047.944C650.071,1120.856 354.918,1445.15 78.392,1854.956Z" style="fill:rgb(212,175,55);"/>
    </g>
    <g transform="matrix(0.860074,0.510169,-0.510169,0.860074,7741.897116,-1099.568622)">
        <path d="M78.392,1854.956C708.12,1198.418 1159.008,1126.434 1704.37,1360.177C1627.277,1294.715 1543.194,1226.354 1274.71,1174.607C1429.549,1164.957 1489.199,1166.907 1598.516,1207.757C1401.699,1044.745 1190.073,1004.147 1031.932,1023.203C1031.932,1023.203 1110.972,1041.823 1082.021,1098.445C1031.283,1197.675 907.88,1047.944 907.88,1047.944C650.071,1120.856 354.918,1445.15 78.392,1854.956Z"/>
        <path d="M1046.287,1076.074C1044.493,1074.576 1040.529,1071.354 1038.094,1070.038C1030.01,1065.67 1022.378,1063.759 1022.378,1063.759C1002.713,1059.127 989.205,1041.054 990.33,1020.882C991.455,1000.71 1006.889,984.252 1026.948,981.835C1193.815,961.728 1417.415,1003.66 1625.093,1175.668C1640.757,1188.641 1644.766,1211.027 1634.578,1228.629C1630.446,1235.767 1624.471,1241.273 1617.555,1244.821C1664.886,1272.337 1698.685,1300.688 1731.34,1328.415C1747.053,1341.759 1750.648,1364.587 1739.795,1382.113C1728.942,1399.64 1706.904,1406.595 1687.956,1398.474C1477.037,1308.074 1280.866,1264.259 1082.265,1285.705C781.628,1318.169 477.137,1499.428 108.462,1883.798C93.488,1899.411 69.056,1900.966 52.222,1887.379C35.389,1873.792 31.753,1849.582 43.853,1831.65C327.151,1411.808 632.418,1082.548 896.541,1007.85C912.452,1003.35 929.518,1008.684 940.034,1021.444C940.034,1021.444 966.828,1054.062 999.187,1075.838C1006.721,1080.908 1014.545,1085.408 1022.411,1088.28C1027.383,1090.095 1032.191,1092.397 1036.553,1090.251C1040.055,1088.529 1042.314,1084.576 1044.922,1079.476C1045.428,1078.486 1045.938,1077.097 1046.287,1076.074ZM78.392,1854.956C708.12,1198.418 1159.008,1126.434 1704.37,1360.177C1627.277,1294.715 1543.194,1226.354 1274.71,1174.607C1429.549,1164.957 1489.199,1166.907 1598.516,1207.757C1401.699,1044.745 1190.073,1004.147 1031.932,1023.203C1031.932,1023.203 1110.972,1041.823 1082.021,1098.445C1031.283,1197.675 907.88,1047.944 907.88,1047.944C650.071,1120.856 354.918,1445.15 78.392,1854.956Z" style="fill:rgb(212,175,55);"/>
    </g>
    <g transform="matrix(-0.96461,-0.263681,0.263681,-0.96461,13466.558697,2441.979298)">
        <path d="M78.392,1854.956C708.12,1198.418 1159.008,1126.434 1704.37,1360.177C1627.277,1294.715 1543.194,1226.354 1274.71,1174.607C1429.549,1164.957 1489.199,1166.907 1598.516,1207.757C1401.699,1044.745 1190.073,1004.147 1031.932,1023.203C1031.932,1023.203 1110.972,1041.823 1082.021,1098.445C1031.283,1197.675 907.88,1047.944 907.88,1047.944C650.071,1120.856 354.918,1445.15 78.392,1854.956Z"/>
        <path d="M1046.287,1076.074C1044.493,1074.576 1040.529,1071.354 1038.094,1070.038C1030.01,1065.67 1022.378,1063.759 1022.378,1063.759C1002.713,1059.127 989.205,1041.054 990.33,1020.882C991.455,1000.71 1006.889,984.252 1026.948,981.835C1193.815,961.728 1417.415,1003.66 1625.093,1175.668C1640.757,1188.641 1644.766,1211.027 1634.578,1228.629C1630.446,1235.767 1624.471,1241.273 1617.555,1244.821C1664.886,1272.337 1698.685,1300.688 1731.34,1328.415C1747.053,1341.759 1750.648,1364.587 1739.795,1382.113C1728.942,1399.64 1706.904,1406.595 1687.956,1398.474C1477.037,1308.074 1280.866,1264.259 1082.265,1285.705C781.628,1318.169 477.137,1499.428 108.462,1883.798C93.488,1899.411 69.056,1900.966 52.222,1887.379C35.389,1873.792 31.753,1849.582 43.853,1831.65C327.151,1411.808 632.418,1082.548 896.541,1007.85C912.452,1003.35 929.518,1008.684 940.034,1021.444C940.034,1021.444 966.828,1054.062 999.187,1075.838C1006.721,1080.908 1014.545,1085.408 1022.411,1088.28C1027.383,1090.095 1032.191,1092.397 1036.553,1090.251C1040.055,1088.529 1042.314,1084.576 1044.922,1079.476C1045.428,1078.486 1045.938,1077.097 1046.287,1076.074ZM78.392,1854.956C708.12,1198.418 1159.008,1126.434 1704.37,1360.177C1627.277,1294.715 1543.194,1226.354 1274.71,1174.607C1429.549,1164.957 1489.199,1166.907 1598.516,1207.757C1401.699,1044.745 1190.073,1004.147 1031.932,1023.203C1031.932,1023.203 1110.972,1041.823 1082.021,1098.445C1031.283,1197.675 907.88,1047.944 907.88,1047.944C650.071,1120.856 354.918,1445.15 78.392,1854.956Z" style="fill:rgb(212,175,55);"/>
    </g>
    <g transform="matrix(-0.98681,-0.161881,0.161881,-0.98681,17181.761105,2367.594567)">
        <path d="M78.392,1854.956C708.12,1198.418 1159.008,1126.434 1704.37,1360.177C1627.277,1294.715 1543.194,1226.354 1274.71,1174.607C1429.549,1164.957 1489.199,1166.907 1598.516,1207.757C1401.699,1044.745 1190.073,1004.147 1031.932,1023.203C1031.932,1023.203 1110.972,1041.823 1082.021,1098.445C1031.283,1197.675 907.88,1047.944 907.88,1047.944C650.071,1120.856 354.918,1445.15 78.392,1854.956Z"/>
        <path d="M1046.287,1076.074C1044.493,1074.576 1040.529,1071.354 1038.094,1070.038C1030.01,1065.67 1022.378,1063.759 1022.378,1063.759C1002.713,1059.127 989.205,1041.054 990.33,1020.882C991.455,1000.71 1006.889,984.252 1026.948,981.835C1193.815,961.728 1417.415,1003.66 1625.093,1175.668C1640.757,1188.641 1644.766,1211.027 1634.578,1228.629C1630.446,1235.767 1624.471,1241.273 1617.555,1244.821C1664.886,1272.337 1698.685,1300.688 1731.34,1328.415C1747.053,1341.759 1750.648,1364.587 1739.795,1382.113C1728.942,1399.64 1706.904,1406.595 1687.956,1398.474C1477.037,1308.074 1280.866,1264.259 1082.265,1285.705C781.628,1318.169 477.137,1499.428 108.462,1883.798C93.488,1899.411 69.056,1900.966 52.222,1887.379C35.389,1873.792 31.753,1849.582 43.853,1831.65C327.151,1411.808 632.418,1082.548 896.541,1007.85C912.452,1003.35 929.518,1008.684 940.034,1021.444C940.034,1021.444 966.828,1054.062 999.187,1075.838C1006.721,1080.908 1014.545,1085.408 1022.411,1088.28C1027.383,1090.095 1032.191,1092.397 1036.553,1090.251C1040.055,1088.529 1042.314,1084.576 1044.922,1079.476C1045.428,1078.486 1045.938,1077.097 1046.287,1076.074ZM78.392,1854.956C708.12,1198.418 1159.008,1126.434 1704.37,1360.177C1627.277,1294.715 1543.194,1226.354 1274.71,1174.607C1429.549,1164.957 1489.199,1166.907 1598.516,1207.757C1401.699,1044.745 1190.073,1004.147 1031.932,1023.203C1031.932,1023.203 1110.972,1041.823 1082.021,1098.445C1031.283,1197.675 907.88,1047.944 907.88,1047.944C650.071,1120.856 354.918,1445.15 78.392,1854.956Z" style="fill:rgb(212,175,55);"/>
    </g>
    <g transform="matrix(0.864799,0.502117,-0.502117,0.864799,11296.210172,-1144.543457)">
        <path d="M78.392,1854.956C708.12,1198.418 1159.008,1126.434 1704.37,1360.177C1627.277,1294.715 1543.194,1226.354 1274.71,1174.607C1429.549,1164.957 1489.199,1166.907 1598.516,1207.757C1401.699,1044.745 1190.073,1004.147 1031.932,1023.203C1031.932,1023.203 1110.972,1041.823 1082.021,1098.445C1031.283,1197.675 907.88,1047.944 907.88,1047.944C650.071,1120.856 354.918,1445.15 78.392,1854.956Z"/>
        <path d="M1046.287,1076.074C1044.493,1074.576 1040.529,1071.354 1038.094,1070.038C1030.01,1065.67 1022.378,1063.759 1022.378,1063.759C1002.713,1059.127 989.205,1041.054 990.33,1020.882C991.455,1000.71 1006.889,984.252 1026.948,981.835C1193.815,961.728 1417.415,1003.66 1625.093,1175.668C1640.757,1188.641 1644.766,1211.027 1634.578,1228.629C1630.446,1235.767 1624.471,1241.273 1617.555,1244.821C1664.886,1272.337 1698.685,1300.688 1731.34,1328.415C1747.053,1341.759 1750.648,1364.587 1739.795,1382.113C1728.942,1399.64 1706.904,1406.595 1687.956,1398.474C1477.037,1308.074 1280.866,1264.259 1082.265,1285.705C781.628,1318.169 477.137,1499.428 108.462,1883.798C93.488,1899.411 69.056,1900.966 52.222,1887.379C35.389,1873.792 31.753,1849.582 43.853,1831.65C327.151,1411.808 632.418,1082.548 896.541,1007.85C912.452,1003.35 929.518,1008.684 940.034,1021.444C940.034,1021.444 966.828,1054.062 999.187,1075.838C1006.721,1080.908 1014.545,1085.408 1022.411,1088.28C1027.383,1090.095 1032.191,1092.397 1036.553,1090.251C1040.055,1088.529 1042.314,1084.576 1044.922,1079.476C1045.428,1078.486 1045.938,1077.097 1046.287,1076.074ZM78.392,1854.956C708.12,1198.418 1159.008,1126.434 1704.37,1360.177C1627.277,1294.715 1543.194,1226.354 1274.71,1174.607C1429.549,1164.957 1489.199,1166.907 1598.516,1207.757C1401.699,1044.745 1190.073,1004.147 1031.932,1023.203C1031.932,1023.203 1110.972,1041.823 1082.021,1098.445C1031.283,1197.675 907.88,1047.944 907.88,1047.944C650.071,1120.856 354.918,1445.15 78.392,1854.956Z" style="fill:rgb(212,175,55);"/>
    </g>
    <g transform="matrix(0.860074,0.510169,-0.510169,0.860074,14879.710775,-1063.360315)">
        <path d="M78.392,1854.956C708.12,1198.418 1159.008,1126.434 1704.37,1360.177C1627.277,1294.715 1543.194,1226.354 1274.71,1174.607C1429.549,1164.957 1489.199,1166.907 1598.516,1207.757C1401.699,1044.745 1190.073,1004.147 1031.932,1023.203C1031.932,1023.203 1110.972,1041.823 1082.021,1098.445C1031.283,1197.675 907.88,1047.944 907.88,1047.944C650.071,1120.856 354.918,1445.15 78.392,1854.956Z"/>
        <path d="M1046.287,1076.074C1044.493,1074.576 1040.529,1071.354 1038.094,1070.038C1030.01,1065.67 1022.378,1063.759 1022.378,1063.759C1002.713,1059.127 989.205,1041.054 990.33,1020.882C991.455,1000.71 1006.889,984.252 1026.948,981.835C1193.815,961.728 1417.415,1003.66 1625.093,1175.668C1640.757,1188.641 1644.766,1211.027 1634.578,1228.629C1630.446,1235.767 1624.471,1241.273 1617.555,1244.821C1664.886,1272.337 1698.685,1300.688 1731.34,1328.415C1747.053,1341.759 1750.648,1364.587 1739.795,1382.113C1728.942,1399.64 1706.904,1406.595 1687.956,1398.474C1477.037,1308.074 1280.866,1264.259 1082.265,1285.705C781.628,1318.169 477.137,1499.428 108.462,1883.798C93.488,1899.411 69.056,1900.966 52.222,1887.379C35.389,1873.792 31.753,1849.582 43.853,1831.65C327.151,1411.808 632.418,1082.548 896.541,1007.85C912.452,1003.35 929.518,1008.684 940.034,1021.444C940.034,1021.444 966.828,1054.062 999.187,1075.838C1006.721,1080.908 1014.545,1085.408 1022.411,1088.28C1027.383,1090.095 1032.191,1092.397 1036.553,1090.251C1040.055,1088.529 1042.314,1084.576 1044.922,1079.476C1045.428,1078.486 1045.938,1077.097 1046.287,1076.074ZM78.392,1854.956C708.12,1198.418 1159.008,1126.434 1704.37,1360.177C1627.277,1294.715 1543.194,1226.354 1274.71,1174.607C1429.549,1164.957 1489.199,1166.907 1598.516,1207.757C1401.699,1044.745 1190.073,1004.147 1031.932,1023.203C1031.932,1023.203 1110.972,1041.823 1082.021,1098.445C1031.283,1197.675 907.88,1047.944 907.88,1047.944C650.071,1120.856 354.918,1445.15 78.392,1854.956Z" style="fill:rgb(212,175,55);"/>
    </g>
    <g transform="matrix(0.860074,0.510169,-0.510169,0.860074,18348.513791,-1170.422137)">
        <path d="M78.392,1854.956C708.12,1198.418 1159.008,1126.434 1704.37,1360.177C1627.277,1294.715 1543.194,1226.354 1274.71,1174.607C1429.549,1164.957 1489.199,1166.907 1598.516,1207.757C1401.699,1044.745 1190.073,1004.147 1031.932,1023.203C1031.932,1023.203 1110.972,1041.823 1082.021,1098.445C1031.283,1197.675 907.88,1047.944 907.88,1047.944C650.071,1120.856 354.918,1445.15 78.392,1854.956Z"/>
        <path d="M1046.287,1076.074C1044.493,1074.576 1040.529,1071.354 1038.094,1070.038C1030.01,1065.67 1022.378,1063.759 1022.378,1063.759C1002.713,1059.127 989.205,1041.054 990.33,1020.882C991.455,1000.71 1006.889,984.252 1026.948,981.835C1193.815,961.728 1417.415,1003.66 1625.093,1175.668C1640.757,1188.641 1644.766,1211.027 1634.578,1228.629C1630.446,1235.767 1624.471,1241.273 1617.555,1244.821C1664.886,1272.337 1698.685,1300.688 1731.34,1328.415C1747.053,1341.759 1750.648,1364.587 1739.795,1382.113C1728.942,1399.64 1706.904,1406.595 1687.956,1398.474C1477.037,1308.074 1280.866,1264.259 1082.265,1285.705C781.628,1318.169 477.137,1499.428 108.462,1883.798C93.488,1899.411 69.056,1900.966 52.222,1887.379C35.389,1873.792 31.753,1849.582 43.853,1831.65C327.151,1411.808 632.418,1082.548 896.541,1007.85C912.452,1003.35 929.518,1008.684 940.034,1021.444C940.034,1021.444 966.828,1054.062 999.187,1075.838C1006.721,1080.908 1014.545,1085.408 1022.411,1088.28C1027.383,1090.095 1032.191,1092.397 1036.553,1090.251C1040.055,1088.529 1042.314,1084.576 1044.922,1079.476C1045.428,1078.486 1045.938,1077.097 1046.287,1076.074ZM78.392,1854.956C708.12,1198.418 1159.008,1126.434 1704.37,1360.177C1627.277,1294.715 1543.194,1226.354 1274.71,1174.607C1429.549,1164.957 1489.199,1166.907 1598.516,1207.757C1401.699,1044.745 1190.073,1004.147 1031.932,1023.203C1031.932,1023.203 1110.972,1041.823 1082.021,1098.445C1031.283,1197.675 907.88,1047.944 907.88,1047.944C650.071,1120.856 354.918,1445.15 78.392,1854.956Z" style="fill:rgb(212,175,55);"/>
    </g>
    <g transform="matrix(-0.96461,-0.263681,0.263681,-0.96461,20487.80044,2444.248221)">
        <path d="M78.392,1854.956C708.12,1198.418 1159.008,1126.434 1704.37,1360.177C1627.277,1294.715 1543.194,1226.354 1274.71,1174.607C1429.549,1164.957 1489.199,1166.907 1598.516,1207.757C1401.699,1044.745 1190.073,1004.147 1031.932,1023.203C1031.932,1023.203 1110.972,1041.823 1082.021,1098.445C1031.283,1197.675 907.88,1047.944 907.88,1047.944C650.071,1120.856 354.918,1445.15 78.392,1854.956Z"/>
        <path d="M1046.287,1076.074C1044.493,1074.576 1040.529,1071.354 1038.094,1070.038C1030.01,1065.67 1022.378,1063.759 1022.378,1063.759C1002.713,1059.127 989.205,1041.054 990.33,1020.882C991.455,1000.71 1006.889,984.252 1026.948,981.835C1193.815,961.728 1417.415,1003.66 1625.093,1175.668C1640.757,1188.641 1644.766,1211.027 1634.578,1228.629C1630.446,1235.767 1624.471,1241.273 1617.555,1244.821C1664.886,1272.337 1698.685,1300.688 1731.34,1328.415C1747.053,1341.759 1750.648,1364.587 1739.795,1382.113C1728.942,1399.64 1706.904,1406.595 1687.956,1398.474C1477.037,1308.074 1280.866,1264.259 1082.265,1285.705C781.628,1318.169 477.137,1499.428 108.462,1883.798C93.488,1899.411 69.056,1900.966 52.222,1887.379C35.389,1873.792 31.753,1849.582 43.853,1831.65C327.151,1411.808 632.418,1082.548 896.541,1007.85C912.452,1003.35 929.518,1008.684 940.034,1021.444C940.034,1021.444 966.828,1054.062 999.187,1075.838C1006.721,1080.908 1014.545,1085.408 1022.411,1088.28C1027.383,1090.095 1032.191,1092.397 1036.553,1090.251C1040.055,1088.529 1042.314,1084.576 1044.922,1079.476C1045.428,1078.486 1045.938,1077.097 1046.287,1076.074ZM78.392,1854.956C708.12,1198.418 1159.008,1126.434 1704.37,1360.177C1627.277,1294.715 1543.194,1226.354 1274.71,1174.607C1429.549,1164.957 1489.199,1166.907 1598.516,1207.757C1401.699,1044.745 1190.073,1004.147 1031.932,1023.203C1031.932,1023.203 1110.972,1041.823 1082.021,1098.445C1031.283,1197.675 907.88,1047.944 907.88,1047.944C650.071,1120.856 354.918,1445.15 78.392,1854.956Z" style="fill:rgb(212,175,55);"/>
    </g>
    <g transform="matrix(-0.98681,-0.161881,0.161881,-0.98681,24203.002848,2369.863489)">
        <path d="M78.392,1854.956C708.12,1198.418 1159.008,1126.434 1704.37,1360.177C1627.277,1294.715 1543.194,1226.354 1274.71,1174.607C1429.549,1164.957 1489.199,1166.907 1598.516,1207.757C1401.699,1044.745 1190.073,1004.147 1031.932,1023.203C1031.932,1023.203 1110.972,1041.823 1082.021,1098.445C1031.283,1197.675 907.88,1047.944 907.88,1047.944C650.071,1120.856 354.918,1445.15 78.392,1854.956Z"/>
        <path d="M1046.287,1076.074C1044.493,1074.576 1040.529,1071.354 1038.094,1070.038C1030.01,1065.67 1022.378,1063.759 1022.378,1063.759C1002.713,1059.127 989.205,1041.054 990.33,1020.882C991.455,1000.71 1006.889,984.252 1026.948,981.835C1193.815,961.728 1417.415,1003.66 1625.093,1175.668C1640.757,1188.641 1644.766,1211.027 1634.578,1228.629C1630.446,1235.767 1624.471,1241.273 1617.555,1244.821C1664.886,1272.337 1698.685,1300.688 1731.34,1328.415C1747.053,1341.759 1750.648,1364.587 1739.795,1382.113C1728.942,1399.64 1706.904,1406.595 1687.956,1398.474C1477.037,1308.074 1280.866,1264.259 1082.265,1285.705C781.628,1318.169 477.137,1499.428 108.462,1883.798C93.488,1899.411 69.056,1900.966 52.222,1887.379C35.389,1873.792 31.753,1849.582 43.853,1831.65C327.151,1411.808 632.418,1082.548 896.541,1007.85C912.452,1003.35 929.518,1008.684 940.034,1021.444C940.034,1021.444 966.828,1054.062 999.187,1075.838C1006.721,1080.908 1014.545,1085.408 1022.411,1088.28C1027.383,1090.095 1032.191,1092.397 1036.553,1090.251C1040.055,1088.529 1042.314,1084.576 1044.922,1079.476C1045.428,1078.486 1045.938,1077.097 1046.287,1076.074ZM78.392,1854.956C708.12,1198.418 1159.008,1126.434 1704.37,1360.177C1627.277,1294.715 1543.194,1226.354 1274.71,1174.607C1429.549,1164.957 1489.199,1166.907 1598.516,1207.757C1401.699,1044.745 1190.073,1004.147 1031.932,1023.203C1031.932,1023.203 1110.972,1041.823 1082.021,1098.445C1031.283,1197.675 907.88,1047.944 907.88,1047.944C650.071,1120.856 354.918,1445.15 78.392,1854.956Z" style="fill:rgb(212,175,55);"/>
    </g>
    <g transform="matrix(0.860074,0.510169,-0.510169,0.860074,21900.952519,-1061.091393)">
        <path d="M78.392,1854.956C708.12,1198.418 1159.008,1126.434 1704.37,1360.177C1627.277,1294.715 1543.194,1226.354 1274.71,1174.607C1429.549,1164.957 1489.199,1166.907 1598.516,1207.757C1401.699,1044.745 1190.073,1004.147 1031.932,1023.203C1031.932,1023.203 1110.972,1041.823 1082.021,1098.445C1031.283,1197.675 907.88,1047.944 907.88,1047.944C650.071,1120.856 354.918,1445.15 78.392,1854.956Z"/>
        <path d="M1046.287,1076.074C1044.493,1074.576 1040.529,1071.354 1038.094,1070.038C1030.01,1065.67 1022.378,1063.759 1022.378,1063.759C1002.713,1059.127 989.205,1041.054 990.33,1020.882C991.455,1000.71 1006.889,984.252 1026.948,981.835C1193.815,961.728 1417.415,1003.66 1625.093,1175.668C1640.757,1188.641 1644.766,1211.027 1634.578,1228.629C1630.446,1235.767 1624.471,1241.273 1617.555,1244.821C1664.886,1272.337 1698.685,1300.688 1731.34,1328.415C1747.053,1341.759 1750.648,1364.587 1739.795,1382.113C1728.942,1399.64 1706.904,1406.595 1687.956,1398.474C1477.037,1308.074 1280.866,1264.259 1082.265,1285.705C781.628,1318.169 477.137,1499.428 108.462,1883.798C93.488,1899.411 69.056,1900.966 52.222,1887.379C35.389,1873.792 31.753,1849.582 43.853,1831.65C327.151,1411.808 632.418,1082.548 896.541,1007.85C912.452,1003.35 929.518,1008.684 940.034,1021.444C940.034,1021.444 966.828,1054.062 999.187,1075.838C1006.721,1080.908 1014.545,1085.408 1022.411,1088.28C1027.383,1090.095 1032.191,1092.397 1036.553,1090.251C1040.055,1088.529 1042.314,1084.576 1044.922,1079.476C1045.428,1078.486 1045.938,1077.097 1046.287,1076.074ZM78.392,1854.956C708.12,1198.418 1159.008,1126.434 1704.37,1360.177C1627.277,1294.715 1543.194,1226.354 1274.71,1174.607C1429.549,1164.957 1489.199,1166.907 1598.516,1207.757C1401.699,1044.745 1190.073,1004.147 1031.932,1023.203C1031.932,1023.203 1110.972,1041.823 1082.021,1098.445C1031.283,1197.675 907.88,1047.944 907.88,1047.944C650.071,1120.856 354.918,1445.15 78.392,1854.956Z" style="fill:rgb(212,175,55);"/>
    </g>
    <g transform="matrix(-0.933527,-0.358506,-0.358506,0.933527,3017.399034,-837.384734)">
        <path d="M969.576,2055.254C980.514,2073.186 975.059,2115.48 1008.472,2148.835C1033.263,2173.584 1099.417,2189.208 1104.381,2208.45C1107.126,2219.091 1020.833,2192.648 1023.18,2203.902C1031.164,2242.183 1036.861,2283.831 1040.365,2327.638C1252.273,2318.673 1427.448,2393.667 1595.602,2484.712C1595.602,2484.712 1732.158,2557.94 1744.039,2601.165C1755.011,2641.084 1666.89,2744.066 1666.89,2744.066C1666.89,2744.066 1742.668,2708.246 1771.654,2688.396C1802.61,2667.196 1909.748,2705.404 1909.748,2705.404C1991.541,2712.415 2038.995,2685.087 2052.21,2623.521C2052.21,2623.521 1967.517,2624.395 1931.666,2605.257C1884.906,2580.295 1771.654,2473.753 1771.654,2473.753L1771.654,2393.39L1666.89,2422.613L1474.18,2334.067C1407.973,2350.971 1542.366,2282.597 1527.366,2282.197C1426.353,2279.5 1384.95,2321.536 1299.359,2246.832C1245.694,2199.993 1180.56,2137.568 1120.728,2112.119C1120.728,2112.119 1228.04,2147.253 1291.634,2148.126C1445.987,2150.248 1637.039,2242.388 1771.654,2246.974C1838.302,2249.244 1890.817,2288.479 1953.103,2330.421C1991.299,2356.14 2059.425,2353.345 2059.425,2353.345C2059.425,2353.345 1923.635,2404.68 1937.273,2410.038C1950.91,2415.396 2090.109,2382.568 2141.249,2385.491C2172.612,2387.283 2234.763,2408.869 2234.763,2408.869C2246.43,2387.813 2252.141,2301.058 2252.141,2301.058L2223.998,2303.79C2223.998,2303.79 2247.074,2372.562 2155.929,2307.819C2151.255,2304.499 2223.998,2303.79 2223.998,2303.79L2252.141,2301.058C2252.141,2301.058 2257.245,2256.107 2225.996,2242.298C2112.504,2272.807 1923.769,2221.53 1666.89,2096.183C1653.142,2092.192 1627.5,2074.937 1627.5,2074.937L1576.478,2052.106C1576.478,2052.106 1432.776,2123.814 1419.442,2053.734C1417.038,2041.096 1419.822,2009.489 1430.45,2016.58C1471.292,2043.833 1574.927,2061.415 1576.478,2052.106L1627.5,2074.937C1627.5,2074.937 1556.229,1983.621 1550.945,1973.946C1469.661,1975.268 1450.767,1951.428 1393.797,1919.708C1324.526,1900.613 1236.692,1921.457 1184.877,1838.771C1124.891,1791.316 1039.547,1754.142 953.948,1734.086C905.895,1722.826 826.303,1719.937 826.303,1719.937C826.303,1719.937 922.867,1749.362 1011.805,1807.999C1080.819,1853.5 1144.38,1938.838 1130.134,1973.946C1130.134,1973.946 993.169,1995.436 969.576,2033.002C965.25,2039.89 964.735,2047.319 969.576,2055.254Z"/>
        <path d="M2293.718,2303.794C2294.202,2297.413 2295.093,2276.486 2288.249,2255.837C2281.334,2234.976 2267.393,2215.038 2242.837,2204.187C2234.131,2200.34 2224.37,2199.589 2215.179,2202.06C2174.745,2212.93 2123.602,2211.252 2062.127,2199.251C1961.314,2179.57 1835.244,2131.971 1685.163,2058.737C1683.021,2057.692 1680.794,2056.833 1678.506,2056.169C1672.171,2054.33 1662.445,2048.274 1656.352,2044.217C1641.733,2025.595 1591.779,1961.785 1587.514,1953.976C1580.093,1940.387 1565.749,1932.033 1550.268,1932.285C1479.498,1933.435 1463.667,1910.921 1414.066,1883.304C1411.161,1881.687 1408.074,1880.423 1404.87,1879.54C1375.413,1871.42 1342.845,1869.779 1310.787,1865.485C1277.114,1860.974 1243.328,1853.579 1220.185,1816.646C1217.658,1812.614 1214.46,1809.045 1210.729,1806.093C1146.449,1755.242 1055.179,1715.01 963.454,1693.518C912.384,1681.551 827.814,1678.298 827.814,1678.298C806.9,1677.539 788.668,1692.411 785.209,1713.051C781.75,1733.691 794.138,1753.695 814.158,1759.795C814.158,1759.795 905.096,1787.553 988.87,1842.785C1025.063,1866.648 1059.655,1902.934 1078.756,1934.862C1079.876,1936.733 1080.96,1938.783 1081.987,1940.895C1057.255,1946.354 1025.681,1954.472 999.284,1964.954C968.624,1977.128 944.762,1994.17 934.291,2010.841C921.645,2030.977 919.685,2052.666 933.324,2075.816C933.737,2077.775 937.384,2095.034 940.137,2106.219C945.892,2129.602 956.034,2155.362 979.035,2178.323C981.176,2180.461 983.532,2182.57 986.073,2184.647L981.752,2198.498L982.391,2212.409C990.04,2249.085 995.474,2288.99 998.831,2330.961C1000.618,2353.293 1019.743,2370.215 1042.126,2369.268C1245.903,2360.646 1414.062,2433.802 1575.763,2521.353L1575.91,2521.432C1575.91,2521.432 1638.772,2555.014 1680.276,2589.135C1688.587,2595.967 1698.297,2606.678 1702.36,2611.286C1699.833,2617.906 1692.704,2635.944 1685.91,2647.246C1664.615,2682.678 1635.232,2716.976 1635.232,2716.976C1622.454,2731.908 1621.848,2753.739 1633.778,2769.358C1645.708,2784.976 1666.929,2790.135 1684.697,2781.736C1684.697,2781.736 1760.661,2745.601 1792.818,2724.372C1796.451,2724.343 1814.947,2724.299 1826.608,2726.294C1860.717,2732.131 1895.753,2744.649 1895.753,2744.649C1899.12,2745.85 1902.628,2746.613 1906.19,2746.918C1969.081,2752.309 2015.493,2739.115 2046.727,2712.849C2069.634,2693.587 2085.497,2666.983 2092.949,2632.266C2095.606,2619.887 2092.491,2606.971 2084.482,2597.165C2076.474,2587.359 2064.441,2581.726 2051.78,2581.857C2051.78,2581.857 1981.098,2584.413 1951.288,2568.499C1916.521,2549.94 1843.22,2483.418 1813.32,2455.682L1813.32,2393.39C1813.32,2380.361 1807.226,2368.083 1796.849,2360.204C1786.472,2352.326 1773.008,2349.755 1760.458,2353.256L1670.408,2378.375L1547.013,2321.678C1554.953,2315.564 1560.319,2310.367 1562.16,2307.776L1569.32,2291.464L1569.201,2273.644L1565.376,2263.215L1559.058,2254.257L1546.396,2244.86L1528.478,2240.545C1485.877,2239.407 1453.314,2245.594 1423.821,2248.654C1392.132,2251.941 1365.543,2249.292 1326.758,2215.44C1317.411,2207.283 1307.718,2198.703 1297.762,2189.941C1369.863,2192.194 1449.814,2214.552 1527.64,2236.701C1615.082,2261.587 1700.073,2286.226 1770.235,2288.616C1828.644,2290.606 1873.679,2327.034 1928.059,2363.788C1917.997,2369.382 1910.961,2374.598 1907.716,2377.888C1892.678,2393.132 1893.426,2408.972 1895.828,2418.941L1899.635,2428.967L1905.31,2437.151L1912.672,2443.765C1915.239,2445.586 1918.311,2447.355 1922.037,2448.819C1927.354,2450.908 1942.449,2453.316 1964.014,2450.603C2006.453,2445.264 2099.638,2424.848 2138.872,2427.09C2166.494,2428.668 2221.092,2448.229 2221.092,2448.229C2240.235,2454.878 2261.386,2446.79 2271.208,2429.064C2276.142,2420.16 2281.283,2403.194 2284.715,2383.422C2290.727,2348.783 2293.718,2303.794 2293.718,2303.794ZM1627.5,2074.937C1627.5,2074.937 1653.142,2092.192 1666.89,2096.183C1923.769,2221.53 2112.504,2272.807 2225.996,2242.298C2257.245,2256.107 2252.141,2301.058 2252.141,2301.058C2252.141,2301.058 2246.43,2387.813 2234.763,2408.869C2234.763,2408.869 2172.612,2387.283 2141.249,2385.491C2090.109,2382.568 1950.91,2415.396 1937.273,2410.038C1923.635,2404.68 2059.425,2353.345 2059.425,2353.345C2059.425,2353.345 1991.299,2356.14 1953.103,2330.421C1890.817,2288.479 1838.302,2249.244 1771.654,2246.974C1637.039,2242.388 1445.987,2150.248 1291.634,2148.126C1228.04,2147.253 1120.728,2112.119 1120.728,2112.119C1180.56,2137.568 1245.694,2199.993 1299.359,2246.832C1384.95,2321.536 1426.353,2279.5 1527.366,2282.197C1542.366,2282.597 1407.973,2350.971 1474.18,2334.067L1666.89,2422.613L1771.654,2393.39L1771.654,2473.753C1771.654,2473.753 1884.906,2580.295 1931.666,2605.257C1967.517,2624.395 2052.21,2623.521 2052.21,2623.521C2038.995,2685.087 1991.541,2712.415 1909.748,2705.404C1909.748,2705.404 1802.61,2667.196 1771.654,2688.396C1742.668,2708.246 1666.89,2744.066 1666.89,2744.066C1666.89,2744.066 1755.011,2641.084 1744.039,2601.165C1732.158,2557.94 1595.602,2484.712 1595.602,2484.712C1427.448,2393.667 1252.273,2318.673 1040.365,2327.638C1036.861,2283.831 1031.164,2242.183 1023.18,2203.902C1020.833,2192.648 1107.126,2219.091 1104.381,2208.45C1099.417,2189.208 1033.263,2173.584 1008.472,2148.835C975.059,2115.48 980.514,2073.186 969.576,2055.254C964.735,2047.319 965.25,2039.89 969.576,2033.002C993.169,1995.436 1130.134,1973.946 1130.134,1973.946C1144.38,1938.838 1080.819,1853.5 1011.805,1807.999C922.867,1749.362 826.303,1719.937 826.303,1719.937C826.303,1719.937 905.895,1722.826 953.948,1734.086C1039.547,1754.142 1124.891,1791.316 1184.877,1838.771C1236.692,1921.457 1324.526,1900.613 1393.797,1919.708C1450.767,1951.428 1469.661,1975.268 1550.945,1973.946C1556.229,1983.621 1627.5,2074.937 1627.5,2074.937ZM2223.998,2303.79C2223.998,2303.79 2151.255,2304.499 2155.929,2307.819C2247.074,2372.562 2223.998,2303.79 2223.998,2303.79ZM1571.858,2054.317C1574.66,2053.942 1576.293,2053.214 1576.478,2052.106C1576.478,2052.106 1574.825,2052.93 1571.858,2054.317C1551.13,2057.089 1466.428,2040.587 1430.45,2016.58C1419.822,2009.489 1417.038,2041.096 1419.442,2053.734C1431.346,2116.298 1547.155,2065.856 1571.858,2054.317Z" style="fill:rgb(212,175,55);"/>
    </g>
</svg>
