<?xml version="1.0" encoding="UTF-8" standalone="no"?>
<!DOCTYPE svg PUBLIC "-//W3C//DTD SVG 1.1//EN" "http://www.w3.org/Graphics/SVG/1.1/DTD/svg11.dtd">
<svg width="100%" height="100%" viewBox="0 0 1063 591" version="1.1" xmlns="http://www.w3.org/2000/svg" xmlns:xlink="http://www.w3.org/1999/xlink" xml:space="preserve" xmlns:serif="http://www.serif.com/" style="fill-rule:evenodd;clip-rule:evenodd;stroke-linejoin:round;stroke-miterlimit:2;">
    <g id="Page-1" serif:id="Page 1" transform="matrix(4.166667,0,0,4.166667,0,0)">
        <rect x="0" y="0" width="255.118" height="141.732" style="fill:none;"/>
        <g id="Background">
            <rect x="0" y="0" width="255.118" height="141.732" style="fill:rgb(212,175,52);"/>
            <g transform="matrix(-1,0,0,1,255.117,-0.001)">
                <rect x="2.834" y="2.835" width="249.449" height="136.063" style="fill:rgb(3,4,4);"/>
            </g>
            <g transform="matrix(1,0,0,1,0,13.158)">
                <rect x="28.346" y="64.145" width="198.425" height="0.284" style="fill:rgb(212,175,52);"/>
            </g>
            <g transform="matrix(1,0,0,1,0,115.159)">
                <rect x="28.346" y="13.145" width="198.425" height="0.283" style="fill:rgb(212,175,52);"/>
            </g>
        </g>
        <g id="Logo">
        </g>
        <g id="Väike-logo" serif:id="Väike logo">
            <g transform="matrix(1,0,0,1,152.3315,14.3231)">
                <path d="M0,29.401C-7.987,26.907 -14.928,20.963 -13.999,16.149C-12.87,10.299 -3.162,8.965 1.076,0C1.076,0 -2.347,6.797 0,6.096C4.825,4.654 10.293,5.149 14.339,5.902C12.954,6.047 11.629,6.21 10.363,6.39C8.999,6.585 7.704,6.798 6.478,7.03C-8.511,9.867 -13.231,15.44 -8.921,21.449C-8.087,22.612 -6.795,20.854 -6.943,18.533C-5.21,25.336 -2.654,27.202 0,29.401" style="fill:rgb(212,175,53);"/>
            </g>
            <g transform="matrix(1,0,0,1,153.2171,43.2851)">
                <path d="M0,-28.571C0.065,-28.7 0.128,-28.83 0.19,-28.962C0.19,-28.962 0.117,-28.816 0,-28.571M0,-28.571C-4.332,-19.957 -13.772,-18.577 -14.884,-12.813C-15.813,-7.999 -8.872,-2.055 -0.886,0.439C-3.54,-1.76 -6.096,-3.626 -7.829,-10.429C-7.68,-8.108 -8.973,-6.35 -9.807,-7.513C-14.117,-13.522 -9.396,-19.095 5.592,-21.932C6.818,-22.164 8.113,-22.377 9.478,-22.572C10.743,-22.752 12.068,-22.915 13.453,-23.06C9.407,-23.813 3.939,-24.308 -0.886,-22.866C-2.89,-22.267 -0.686,-27.136 0,-28.571M-0.985,-29.209C-0.901,-29.386 -0.851,-29.486 -0.851,-29.486C-0.564,-30.057 0.128,-30.29 0.702,-30.01C1.276,-29.73 1.518,-29.04 1.245,-28.463C1.175,-28.315 1.103,-28.168 1.03,-28.024C0.675,-27.281 -0.057,-25.679 -0.393,-24.41C-0.411,-24.344 -0.427,-24.272 -0.441,-24.199C4.37,-25.429 9.682,-24.948 13.666,-24.207C14.236,-24.101 14.642,-23.593 14.619,-23.014C14.596,-22.435 14.151,-21.96 13.575,-21.9C12.205,-21.756 10.894,-21.595 9.642,-21.417C8.296,-21.225 7.019,-21.014 5.809,-20.786C-1.369,-19.427 -6.113,-17.478 -8.522,-15.085C-9.543,-14.07 -10.104,-12.99 -10.162,-11.844C-10.211,-10.857 -9.894,-9.841 -9.261,-8.8C-9.116,-9.224 -8.959,-9.823 -8.993,-10.354C-9.031,-10.955 -8.606,-11.487 -8.011,-11.581C-7.416,-11.675 -6.847,-11.301 -6.699,-10.717C-5.062,-4.295 -2.647,-2.535 -0.141,-0.459C0.288,-0.104 0.405,0.506 0.14,0.995C-0.126,1.485 -0.701,1.719 -1.233,1.552C-6.248,-0.013 -10.859,-2.897 -13.544,-6.028C-15.523,-8.335 -16.46,-10.806 -16.029,-13.034C-15.525,-15.649 -13.564,-17.518 -10.997,-19.386C-7.738,-21.758 -3.451,-24.208 -0.985,-29.209" style="fill:rgb(3,4,5);"/>
            </g>
            <g transform="matrix(1,0,0,1,81.1728,7.2348)">
                <path d="M0,23.818C17.629,5.439 30.251,3.423 45.518,9.967C43.36,8.134 41.006,6.221 33.49,4.772C37.825,4.502 39.495,4.556 42.555,5.7C37.045,1.137 31.121,0 26.694,0.533C26.694,0.533 28.907,1.055 28.096,2.64C26.676,5.418 23.221,1.226 23.221,1.226C16.004,3.267 7.741,12.346 0,23.818" style="fill:rgb(3,4,5);"/>
            </g>
            <g transform="matrix(1,0,0,1,81.1728,7.3358)">
                <path d="M0,23.717C17.629,5.338 30.251,3.322 45.518,9.866C43.36,8.033 41.006,6.12 33.49,4.671C37.825,4.401 39.495,4.455 42.555,5.599C37.045,1.036 31.121,-0.101 26.694,0.432C26.694,0.432 28.907,0.954 28.096,2.539C26.676,5.317 23.221,1.125 23.221,1.125C16.004,3.166 7.741,12.245 0,23.717M27.096,1.913C27.046,1.871 26.935,1.78 26.866,1.744C26.64,1.621 26.426,1.568 26.426,1.568C25.876,1.438 25.498,0.932 25.529,0.367C25.561,-0.197 25.993,-0.658 26.554,-0.726C31.226,-1.288 37.485,-0.115 43.299,4.701C43.738,5.064 43.85,5.691 43.565,6.183C43.449,6.383 43.282,6.537 43.088,6.637C44.413,7.407 45.359,8.201 46.273,8.977C46.713,9.35 46.814,9.989 46.51,10.48C46.206,10.971 45.589,11.165 45.059,10.938C39.154,8.407 33.663,7.181 28.103,7.781C19.687,8.69 11.163,13.764 0.842,24.524C0.423,24.961 -0.261,25.005 -0.733,24.625C-1.204,24.244 -1.306,23.567 -0.967,23.065C6.964,11.311 15.51,2.094 22.904,0.003C23.349,-0.123 23.827,0.026 24.121,0.383C24.121,0.383 24.871,1.296 25.777,1.906C25.988,2.048 26.207,2.174 26.427,2.254C26.567,2.305 26.701,2.37 26.823,2.309C26.921,2.261 26.985,2.151 27.058,2.008C27.072,1.98 27.086,1.941 27.096,1.913" style="fill:rgb(212,175,53);"/>
            </g>
            <g transform="matrix(1,0,0,1,115.6666,47.0561)">
                <path d="M0,-28.735C18.6,-20.33 17.113,-15.068 -9.248,-3.64C-5.951,-4.466 -4.797,-2.993 -6.954,0C2.578,-2.941 12.571,-9.758 12.571,-9.758C12.571,-9.758 9.083,-10.115 10.759,-11.828C12.597,-13.706 14.813,-12.181 15.156,-12.681C20.921,-21.08 17.204,-26.059 0,-28.735" style="fill:rgb(3,4,5);"/>
            </g>
            <g transform="matrix(1,0,0,1,115.6666,47.0771)">
                <path d="M0,-28.756C18.6,-20.351 17.113,-15.089 -9.248,-3.661C-5.951,-4.487 -4.797,-3.014 -6.954,-0.021C2.578,-2.962 12.571,-9.779 12.571,-9.779C12.571,-9.779 9.083,-10.136 10.759,-11.849C12.597,-13.727 14.813,-12.202 15.156,-12.702C20.921,-21.101 17.204,-26.08 0,-28.756M11.776,-11.202L12.689,-10.94C13.177,-10.89 13.581,-10.541 13.701,-10.066C13.822,-9.591 13.633,-9.092 13.228,-8.816C13.228,-8.816 3.074,-1.894 -6.61,1.094C-7.089,1.242 -7.609,1.067 -7.901,0.66C-8.194,0.252 -8.193,-0.296 -7.9,-0.703C-7.465,-1.306 -7.182,-1.825 -7.067,-2.265C-7.027,-2.414 -6.964,-2.533 -7.023,-2.621C-7.078,-2.703 -7.204,-2.687 -7.343,-2.704C-7.769,-2.759 -8.313,-2.693 -8.965,-2.53C-9.554,-2.382 -10.158,-2.711 -10.353,-3.286C-10.548,-3.861 -10.269,-4.49 -9.712,-4.731C-0.387,-8.774 5.783,-12.007 8.992,-14.906C10.751,-16.495 11.58,-17.881 11.238,-19.312C11.002,-20.297 10.256,-21.241 9.096,-22.233C7.073,-23.965 3.854,-25.734 -0.48,-27.693C-1.012,-27.933 -1.284,-28.53 -1.118,-29.089C-0.951,-29.648 -0.397,-29.998 0.179,-29.909C6.554,-28.917 11.124,-27.596 14.093,-25.937C16.292,-24.707 17.666,-23.267 18.341,-21.664C19.45,-19.031 18.715,-15.827 16.118,-12.042C15.859,-11.665 15.391,-11.37 14.636,-11.44C14.379,-11.464 14.034,-11.543 13.636,-11.602C13.106,-11.681 12.414,-11.726 11.776,-11.202" style="fill:rgb(212,175,53);"/>
            </g>
            <g transform="matrix(1,0,0,1,77.9346,64.0757)">
                <path d="M0,-41.246C25.158,-44.932 20.234,-33.379 19.642,-18.395C19.61,-17.581 17.687,-10.752 17.687,-10.752C19.581,-13.13 19.519,-14.453 21.13,-14.649C22.049,-12.096 17.783,0.758 13.395,6.73C20.329,-0.761 21.78,0.149 25.299,6.73C25.181,2.407 19.477,-8.898 22.759,-7.709C24.048,-7.242 25.998,-3.593 25.998,-3.593C25.998,-3.593 24.795,-8.982 24.746,-10.07C23.402,-40.353 27.197,-47.976 0,-41.246" style="fill:rgb(3,4,5);"/>
            </g>
            <g transform="matrix(1,0,0,1,77.9346,65.3687)">
                <path d="M0,-42.539C25.158,-46.225 20.234,-34.672 19.642,-19.688C19.61,-18.874 17.687,-12.045 17.687,-12.045C19.581,-14.423 19.519,-15.746 21.13,-15.942C22.049,-13.389 17.783,-0.535 13.395,5.437C20.329,-2.054 21.78,-1.144 25.299,5.437C25.181,1.114 19.477,-10.191 22.759,-9.002C24.048,-8.535 25.998,-4.886 25.998,-4.886C25.998,-4.886 24.795,-10.275 24.746,-11.363C23.402,-41.646 27.197,-49.269 0,-42.539M23.009,-7.306C23.083,-6.913 23.192,-6.469 23.325,-5.989C24.293,-2.492 26.392,2.748 26.465,5.405C26.479,5.946 26.12,6.426 25.597,6.564C25.075,6.703 24.525,6.464 24.27,5.987C23.436,4.427 22.732,3.198 22.031,2.351C21.54,1.758 21.102,1.361 20.549,1.324C19.925,1.281 19.252,1.641 18.381,2.288C17.257,3.121 15.922,4.425 14.252,6.229C13.831,6.683 13.13,6.73 12.653,6.336C12.176,5.942 12.089,5.245 12.455,4.746C15.45,0.671 18.375,-6.696 19.56,-11.601C19.697,-12.169 19.811,-12.703 19.897,-13.192C19.573,-12.659 19.17,-12.035 18.599,-11.319C18.253,-10.884 17.649,-10.754 17.155,-11.007C16.661,-11.261 16.414,-11.827 16.564,-12.362C16.564,-12.362 18.445,-18.948 18.477,-19.734C18.688,-25.081 19.464,-29.987 19.196,-33.906C19.038,-36.229 18.522,-38.181 17.127,-39.579C15.954,-40.755 14.184,-41.516 11.606,-41.86C8.785,-42.237 5.062,-42.102 0.169,-41.385C-0.447,-41.295 -1.025,-41.704 -1.145,-42.314C-1.265,-42.925 -0.884,-43.522 -0.28,-43.671C6.393,-45.323 11.244,-46.111 14.777,-45.955C17.364,-45.84 19.298,-45.222 20.768,-44.13C22.94,-42.516 24.142,-39.816 24.76,-35.824C25.602,-30.38 25.425,-22.374 25.912,-11.415C25.958,-10.36 27.136,-5.14 27.136,-5.14C27.263,-4.571 26.95,-3.995 26.403,-3.793C25.856,-3.59 25.244,-3.822 24.969,-4.337C24.969,-4.337 24.306,-5.577 23.513,-6.664C23.349,-6.89 23.179,-7.109 23.009,-7.306" style="fill:rgb(212,175,53);"/>
            </g>
            <g transform="matrix(1,0,0,1,106.0045,63.9485)">
                <path d="M0,-9.896C0.306,-9.394 0.153,-8.21 1.089,-7.276C1.783,-6.583 3.635,-6.146 3.774,-5.607C3.851,-5.309 1.435,-6.05 1.501,-5.735C1.724,-4.663 1.884,-3.497 1.982,-2.271C7.914,-2.522 12.818,-0.422 17.525,2.126C17.525,2.126 21.348,4.176 21.681,5.387C21.988,6.504 19.521,9.387 19.521,9.387C19.521,9.387 21.642,8.384 22.454,7.829C23.32,7.235 26.32,8.305 26.32,8.305C28.609,8.501 29.938,7.736 30.308,6.012C30.308,6.012 27.937,6.037 26.933,5.501C25.624,4.802 22.454,1.82 22.454,1.82L22.454,-0.43L19.521,0.388L14.126,-2.091C12.273,-1.618 16.035,-3.532 15.615,-3.543C12.787,-3.618 11.628,-2.442 9.232,-4.533C7.73,-5.844 5.906,-7.592 4.231,-8.304C4.231,-8.304 7.236,-7.321 9.016,-7.296C13.337,-7.237 18.685,-4.657 22.454,-4.529C24.32,-4.465 25.79,-3.367 27.533,-2.193C28.603,-1.473 30.51,-1.551 30.51,-1.551C30.51,-1.551 26.708,-0.114 27.09,0.036C27.472,0.186 31.369,-0.733 32.8,-0.651C33.678,-0.601 35.418,0.003 35.418,0.003C35.745,-0.586 35.905,-3.015 35.905,-3.015L35.117,-2.938C35.117,-2.938 35.763,-1.013 33.211,-2.826C33.081,-2.918 35.117,-2.938 35.117,-2.938L35.905,-3.015C35.905,-3.015 36.048,-4.273 35.173,-4.66C31.996,-3.806 26.712,-5.241 19.521,-8.75C19.136,-8.862 18.418,-9.345 18.418,-9.345L16.99,-9.984C16.99,-9.984 12.967,-7.977 12.594,-9.939C12.526,-10.292 12.604,-11.177 12.902,-10.979C14.045,-10.216 16.947,-9.724 16.99,-9.984L18.418,-9.345C18.418,-9.345 16.423,-11.901 16.275,-12.172C14,-12.135 13.471,-12.803 11.876,-13.691C9.937,-14.225 7.478,-13.642 6.027,-15.956C4.348,-17.285 1.959,-18.325 -0.437,-18.887C-1.783,-19.202 -4.011,-19.283 -4.011,-19.283C-4.011,-19.283 -1.308,-18.459 1.182,-16.818C3.114,-15.544 4.894,-13.155 4.495,-12.172C4.495,-12.172 0.66,-11.571 0,-10.519C-0.121,-10.326 -0.136,-10.118 0,-9.896" style="fill:rgb(3,4,5);"/>
            </g>
            <g transform="matrix(1,0,0,1,122.8651,64.0773)">
                <path d="M0,-10.051C-0.692,-9.728 -3.934,-8.316 -4.267,-10.067C-4.334,-10.421 -4.256,-11.306 -3.959,-11.107C-2.951,-10.435 -0.58,-9.973 0,-10.051C0.083,-10.09 0.129,-10.113 0.129,-10.113C0.124,-10.082 0.078,-10.061 0,-10.051M18.256,-3.067C18.256,-3.067 18.902,-1.142 16.351,-2.954C16.22,-3.047 18.256,-3.067 18.256,-3.067M1.558,-9.474C1.558,-9.474 -0.438,-12.03 -0.585,-12.301C-2.861,-12.264 -3.39,-12.931 -4.985,-13.819C-6.924,-14.354 -9.383,-13.77 -10.833,-16.085C-12.513,-17.414 -14.902,-18.454 -17.298,-19.016C-18.643,-19.331 -20.871,-19.412 -20.871,-19.412C-20.871,-19.412 -18.168,-18.588 -15.678,-16.947C-13.746,-15.673 -11.967,-13.284 -12.366,-12.301C-12.366,-12.301 -16.2,-11.699 -16.861,-10.648C-16.982,-10.455 -16.996,-10.247 -16.861,-10.025C-16.554,-9.523 -16.707,-8.339 -15.772,-7.405C-15.078,-6.712 -13.226,-6.275 -13.087,-5.736C-13.01,-5.438 -15.426,-6.178 -15.36,-5.863C-15.136,-4.792 -14.977,-3.626 -14.879,-2.4C-8.947,-2.65 -4.043,-0.551 0.665,1.998C0.665,1.998 4.488,4.048 4.82,5.258C5.127,6.375 2.66,9.258 2.66,9.258C2.66,9.258 4.782,8.255 5.593,7.7C6.46,7.106 9.459,8.176 9.459,8.176C11.749,8.372 13.077,7.607 13.447,5.884C13.447,5.884 11.076,5.908 10.073,5.372C8.764,4.674 5.593,1.691 5.593,1.691L5.593,-0.559L2.66,0.259L-2.734,-2.22C-4.588,-1.746 -0.826,-3.66 -1.246,-3.672C-4.073,-3.747 -5.232,-2.57 -7.628,-4.662C-9.131,-5.973 -10.954,-7.72 -12.629,-8.433C-12.629,-8.433 -9.625,-7.449 -7.845,-7.425C-3.524,-7.365 1.825,-4.786 5.593,-4.658C7.459,-4.594 8.929,-3.496 10.673,-2.322C11.742,-1.602 13.649,-1.68 13.649,-1.68C13.649,-1.68 9.848,-0.243 10.23,-0.093C10.611,0.057 14.508,-0.862 15.94,-0.78C16.818,-0.73 18.558,-0.125 18.558,-0.125C18.884,-0.715 19.044,-3.144 19.044,-3.144C19.044,-3.144 19.187,-4.402 18.312,-4.789C15.135,-3.934 9.852,-5.37 2.66,-8.879C2.276,-8.991 1.558,-9.474 1.558,-9.474M2.365,-10.334C2.536,-10.22 2.808,-10.051 2.986,-9.999C3.05,-9.981 3.112,-9.957 3.172,-9.927C7.373,-7.877 10.903,-6.545 13.725,-5.994C15.446,-5.658 16.878,-5.611 18.009,-5.915C18.267,-5.984 18.54,-5.963 18.784,-5.855C19.471,-5.552 19.861,-4.994 20.055,-4.41C20.247,-3.831 20.222,-3.246 20.208,-3.067C20.208,-3.067 20.124,-1.808 19.956,-0.838C19.86,-0.284 19.716,0.191 19.578,0.44C19.303,0.936 18.711,1.163 18.175,0.976C18.175,0.976 16.647,0.429 15.873,0.385C14.775,0.322 12.166,0.893 10.978,1.043C10.375,1.119 9.952,1.051 9.803,0.993C9.699,0.952 9.613,0.902 9.541,0.851L9.335,0.666L9.176,0.437L9.069,0.156C9.002,-0.123 8.981,-0.566 9.402,-0.993C9.493,-1.085 9.69,-1.231 9.972,-1.388C8.449,-2.416 7.189,-3.436 5.553,-3.492C3.589,-3.559 1.21,-4.249 -1.238,-4.945C-3.417,-5.565 -5.655,-6.191 -7.673,-6.254C-7.394,-6.009 -7.123,-5.769 -6.861,-5.54C-5.776,-4.593 -5.031,-4.519 -4.144,-4.611C-3.319,-4.696 -2.407,-4.869 -1.214,-4.838L-0.713,-4.717L-0.358,-4.454L-0.181,-4.203L-0.074,-3.911L-0.071,-3.412L-0.271,-2.956C-0.323,-2.883 -0.473,-2.738 -0.696,-2.566L2.759,-0.979L5.28,-1.682C5.631,-1.78 6.008,-1.708 6.299,-1.488C6.589,-1.267 6.76,-0.924 6.76,-0.559L6.76,1.185C7.597,1.961 9.649,3.824 10.622,4.343C11.456,4.789 13.435,4.717 13.435,4.717C13.79,4.714 14.126,4.871 14.351,5.146C14.575,5.42 14.662,5.782 14.588,6.128C14.379,7.1 13.935,7.845 13.294,8.384C12.419,9.12 11.12,9.489 9.359,9.338C9.26,9.33 9.162,9.308 9.067,9.275C9.067,9.275 8.086,8.924 7.132,8.761C6.805,8.705 6.287,8.706 6.186,8.707C5.285,9.301 3.159,10.313 3.159,10.313C2.661,10.548 2.067,10.403 1.733,9.966C1.399,9.529 1.416,8.918 1.774,8.5C1.774,8.5 2.597,7.54 3.193,6.548C3.383,6.231 3.583,5.726 3.653,5.541C3.54,5.412 3.268,5.112 3.035,4.921C1.873,3.966 0.113,3.026 0.113,3.026L0.109,3.023C-4.417,0.573 -9.125,-1.475 -14.83,-1.234C-15.456,-1.208 -15.992,-1.681 -16.042,-2.306C-16.136,-3.481 -16.288,-4.599 -16.502,-5.625L-16.52,-6.015L-16.399,-6.402C-16.47,-6.461 -16.536,-6.52 -16.596,-6.58C-17.24,-7.222 -17.524,-7.943 -17.685,-8.598C-17.762,-8.911 -17.864,-9.394 -17.875,-9.449C-18.257,-10.097 -18.202,-10.704 -17.848,-11.268C-17.555,-11.735 -16.887,-12.212 -16.029,-12.553C-15.29,-12.846 -14.406,-13.073 -13.714,-13.226C-13.742,-13.285 -13.773,-13.343 -13.804,-13.395C-14.339,-14.289 -15.307,-15.305 -16.32,-15.973C-18.666,-17.519 -21.211,-18.296 -21.211,-18.296C-21.772,-18.467 -22.119,-19.027 -22.022,-19.605C-21.925,-20.182 -21.415,-20.599 -20.829,-20.577C-20.829,-20.577 -18.462,-20.486 -17.032,-20.151C-14.464,-19.55 -11.909,-18.423 -10.11,-17C-10.005,-16.917 -9.916,-16.817 -9.845,-16.704C-9.197,-15.671 -8.251,-15.464 -7.309,-15.337C-6.411,-15.217 -5.499,-15.171 -4.675,-14.944C-4.585,-14.919 -4.499,-14.884 -4.417,-14.838C-3.029,-14.065 -2.586,-13.435 -0.604,-13.467C-0.171,-13.474 0.231,-13.24 0.438,-12.86C0.558,-12.641 1.956,-10.855 2.365,-10.334" style="fill:rgb(212,175,53);"/>
            </g>
            <g transform="matrix(1,0,0,1,135.6083,64.9666)">
                <path d="M0,1.461C11.932,4.766 21.328,3.232 27.358,-4.815C28.195,-5.932 25.054,0.333 26.378,0.263C29.347,0.106 31.584,-3.528 33.446,-6.849C32.44,-0.718 30.629,1.634 26.116,3.206C24.115,3.904 21.373,4.472 21.373,4.472C22.664,6.784 23.512,6.378 27.638,6.7C18.439,8.31 11.977,6.904 0,1.461" style="fill:rgb(212,175,53);"/>
            </g>
            <g transform="matrix(1,0,0,1,135.6083,64.8676)">
                <path d="M0,1.56C11.977,7.003 18.439,8.409 27.638,6.799C23.512,6.477 22.664,6.883 21.373,4.571C21.373,4.571 24.115,4.003 26.116,3.305C30.629,1.733 32.44,-0.619 33.446,-6.75C31.584,-3.429 29.347,0.205 26.378,0.362C25.054,0.432 28.195,-5.833 27.358,-4.716C21.328,3.331 11.932,4.865 0,1.56M27.429,-1.092C28.157,-1.434 28.817,-2.045 29.445,-2.771C30.56,-4.058 31.536,-5.729 32.429,-7.321C32.706,-7.814 33.298,-8.038 33.832,-7.851C34.366,-7.664 34.689,-7.12 34.597,-6.561C33.942,-2.565 32.914,-0.07 31.184,1.674C30.008,2.859 28.498,3.71 26.5,4.407C25.569,4.731 24.483,5.029 23.57,5.258C23.897,5.375 24.291,5.41 24.8,5.45C25.549,5.508 26.491,5.54 27.729,5.637C28.315,5.682 28.775,6.157 28.803,6.744C28.831,7.331 28.418,7.847 27.839,7.948C18.415,9.598 11.787,8.198 -0.483,2.622C-1.037,2.37 -1.304,1.734 -1.096,1.162C-0.888,0.589 -0.275,0.273 0.311,0.436C11.687,3.587 20.676,2.257 26.424,-5.415C27.348,-6.647 28.375,-5.663 28.513,-5.417C28.575,-5.308 28.764,-4.882 28.56,-4.251C28.4,-3.756 27.902,-2.575 27.544,-1.487C27.504,-1.365 27.465,-1.229 27.429,-1.092" style="fill:rgb(3,4,5);"/>
            </g>
            <g transform="matrix(1,0,0,1,165.1282,32.8561)">
                <path d="M0,27.624C0.587,19.138 -6.545,18.067 -23.536,16.082C-18.117,15.334 -16.335,16.209 -15.414,14.526C-24.114,11.742 -28.129,8.673 -29.52,0C-27.967,7.798 -19.015,12.144 -8.508,14.526C-7.206,14.821 -5.504,13.041 -8.34,9.502C0.876,18.361 3.136,21.993 0,27.624" style="fill:rgb(212,175,53);"/>
            </g>
            <g transform="matrix(1,0,0,1,165.1282,32.8701)">
                <path d="M0,27.61C3.136,21.979 0.876,18.347 -8.34,9.488C-5.504,13.027 -7.206,14.807 -8.508,14.512C-19.015,12.13 -27.967,7.784 -29.52,-0.014C-28.129,8.659 -24.114,11.728 -15.414,14.512C-16.335,16.195 -18.117,15.32 -23.536,16.068C-6.545,18.053 0.587,19.124 0,27.61M-18.889,14.527C-22.717,13.033 -25.46,11.294 -27.389,8.749C-29.017,6.6 -30.079,3.867 -30.672,0.171C-30.772,-0.457 -30.352,-1.05 -29.726,-1.162C-29.101,-1.274 -28.5,-0.865 -28.376,-0.242C-27.66,3.351 -25.202,6.119 -21.75,8.293C-18.104,10.589 -13.364,12.215 -8.25,13.375C-8.133,13.401 -8.039,13.282 -7.997,13.129C-7.821,12.489 -8.184,11.548 -9.25,10.217C-9.635,9.737 -9.581,9.041 -9.127,8.626C-8.673,8.212 -7.975,8.221 -7.532,8.647C-3.766,12.267 -1.145,15.04 0.45,17.424C1.761,19.386 2.407,21.122 2.489,22.831C2.571,24.554 2.083,26.268 1.019,28.178C0.753,28.655 0.192,28.884 -0.332,28.728C-0.856,28.573 -1.201,28.075 -1.164,27.53C-1.038,25.707 -1.29,24.275 -2.022,23.136C-2.758,21.99 -3.962,21.162 -5.62,20.48C-9.388,18.93 -15.32,18.202 -23.671,17.226C-24.254,17.158 -24.696,16.667 -24.702,16.08C-24.708,15.493 -24.277,14.993 -23.695,14.912C-21.616,14.625 -20.065,14.573 -18.889,14.527" style="fill:rgb(3,4,5);"/>
            </g>
            <g transform="matrix(1,0,0,1,159.7105,31.6738)">
                <path d="M0,-8.381C8.273,-7.318 11.448,-4.069 9.948,1.182C9.948,1.182 14.23,-3.721 8.639,-7.379C5.302,-9.563 0,-8.381 0,-8.381" style="fill:rgb(212,175,53);"/>
            </g>
            <g transform="matrix(1,0,0,1,159.7105,31.7568)">
                <path d="M0,-8.464C8.273,-7.401 11.448,-4.152 9.948,1.099C9.948,1.099 14.23,-3.804 8.639,-7.462C5.302,-9.646 0,-8.464 0,-8.464M-0.254,-9.602C-0.254,-9.602 5.593,-10.849 9.278,-8.438C11.279,-7.129 12.184,-5.656 12.52,-4.277C13.313,-1.033 10.826,1.867 10.826,1.867C10.467,2.278 9.87,2.385 9.391,2.124C8.911,1.863 8.676,1.304 8.826,0.779C9.319,-0.946 9.251,-2.413 8.493,-3.603C7.239,-5.57 4.348,-6.729 -0.149,-7.307C-0.711,-7.379 -1.139,-7.845 -1.165,-8.411C-1.191,-8.977 -0.807,-9.479 -0.254,-9.602" style="fill:rgb(3,4,5);"/>
            </g>
            <g transform="matrix(0.055541,0.998456,0.998456,-0.055541,149.010892,55.321229)">
                <path d="M6.759,-4.634C5.599,0.024 5.643,0.435 2.984,3.289C2.984,3.289 5.952,1.034 6.759,1.649C7.565,2.266 7.825,6.982 7.825,6.982C8.807,4.534 8.75,0.585 6.759,-4.634" style="fill:rgb(212,175,53);"/>
            </g>
            <g transform="matrix(1,0,0,1,144.7592,59.762)">
                <path d="M0,2.565C5.322,4.263 9.268,4.101 11.658,2.984C11.658,2.984 6.934,2.987 6.274,2.216C5.615,1.445 7.701,-1.644 7.701,-1.644C4.999,1.169 4.587,1.148 0,2.565M7.4,1.454C7.561,1.498 7.752,1.544 7.916,1.571C9.454,1.822 11.657,1.817 11.657,1.817C12.204,1.817 12.678,2.197 12.797,2.73C12.915,3.264 12.647,3.809 12.152,4.041C9.589,5.239 5.353,5.497 -0.355,3.676C-0.84,3.521 -1.169,3.069 -1.166,2.56C-1.164,2.05 -0.831,1.601 -0.344,1.451C3.938,0.128 4.337,0.174 6.859,-2.452C7.279,-2.889 7.963,-2.932 8.434,-2.552C8.905,-2.171 9.006,-1.493 8.667,-0.992C8.667,-0.992 7.98,0.023 7.562,0.988C7.502,1.125 7.445,1.302 7.4,1.454" style="fill:rgb(3,4,5);"/>
            </g>
        </g>
        <g id="TEXT">
            <text x="76.108px" y="95.971px" style="font-family:'ArialMT', 'Arial', sans-serif;font-size:18px;fill:rgb(212,175,52);">R<tspan x="91.316px 97.524px 109.744px 121.964px 127.642px 141.857px 154.077px 166.296px " y="95.971px 95.971px 95.971px 95.971px 95.971px 95.971px 95.971px 95.971px ">iho Sepp</tspan></text>
            <text x="64.672px" y="121.853px" style="font-family:'Arial-BoldMT', 'Arial', sans-serif;font-weight:700;font-size:8px;fill:rgb(212,175,52);">https://github.com/Rihosepp-40B</text>
            <text x="59.656px" y="109.981px" style="font-family:'Arial-BoldMT', 'Arial', sans-serif;font-weight:700;font-size:8px;fill:rgb(212,175,52);">RihoSepp@tthkee.onmicrosoft.com</text>
        </g>
        <g id="QR">
            <g transform="matrix(1,0,0,1,0,-89.052)">
                <path d="M45.463,132.523L46.953,132.523L46.953,134.013L45.463,134.013L45.463,132.523ZM43.973,132.523L45.463,132.523L45.463,134.013L43.973,134.013L43.973,132.523ZM38.014,132.523L39.504,132.523L39.504,134.013L38.014,134.013L38.014,132.523ZM35.035,132.523L36.525,132.523L36.525,134.013L35.035,134.013L35.035,132.523ZM33.545,132.523L35.035,132.523L35.035,134.013L33.545,134.013L33.545,132.523ZM30.566,132.523L32.056,132.523L32.056,134.013L30.566,134.013L30.566,132.523ZM27.587,132.523L29.077,132.523L29.077,134.013L27.587,134.013L27.587,132.523ZM26.097,132.523L27.587,132.523L27.587,134.013L26.097,134.013L26.097,132.523ZM24.607,132.523L26.097,132.523L26.097,134.013L24.607,134.013L24.607,132.523ZM21.628,132.523L23.118,132.523L23.118,134.013L21.628,134.013L21.628,132.523ZM43.973,131.033L45.463,131.033L45.463,132.523L43.973,132.523L43.973,131.033ZM40.994,131.033L42.484,131.033L42.484,132.523L40.994,132.523L40.994,131.033ZM39.504,131.033L40.994,131.033L40.994,132.523L39.504,132.523L39.504,131.033ZM36.525,131.033L38.015,131.033L38.015,132.523L36.525,132.523L36.525,131.033ZM33.545,131.033L35.035,131.033L35.035,132.523L33.545,132.523L33.545,131.033ZM32.056,131.033L33.546,131.033L33.546,132.523L32.056,132.523L32.056,131.033ZM30.566,131.033L32.056,131.033L32.056,132.523L30.566,132.523L30.566,131.033ZM29.076,131.033L30.566,131.033L30.566,132.523L29.076,132.523L29.076,131.033ZM27.587,131.033L29.077,131.033L29.077,132.523L27.587,132.523L27.587,131.033ZM23.118,131.033L24.608,131.033L24.608,132.523L23.118,132.523L23.118,131.033ZM45.463,129.543L46.953,129.543L46.953,131.033L45.463,131.033L45.463,129.543ZM39.504,129.543L40.994,129.543L40.994,131.033L39.504,131.033L39.504,129.543ZM32.056,129.543L33.546,129.543L33.546,131.033L32.056,131.033L32.056,129.543ZM30.566,129.543L32.056,129.543L32.056,131.033L30.566,131.033L30.566,129.543ZM27.587,129.543L29.077,129.543L29.077,131.033L27.587,131.033L27.587,129.543ZM26.097,129.543L27.587,129.543L27.587,131.033L26.097,131.033L26.097,129.543ZM24.607,129.543L26.097,129.543L26.097,131.033L24.607,131.033L24.607,129.543ZM23.118,129.543L24.608,129.543L24.608,131.033L23.118,131.033L23.118,129.543ZM21.628,129.543L23.118,129.543L23.118,131.033L21.628,131.033L21.628,129.543ZM42.483,128.054L43.973,128.054L43.973,129.544L42.483,129.544L42.483,128.054ZM40.994,128.054L42.484,128.054L42.484,129.544L40.994,129.544L40.994,128.054ZM39.504,128.054L40.994,128.054L40.994,129.544L39.504,129.544L39.504,128.054ZM38.014,128.054L39.504,128.054L39.504,129.544L38.014,129.544L38.014,128.054ZM33.545,128.054L35.035,128.054L35.035,129.544L33.545,129.544L33.545,128.054ZM32.056,128.054L33.546,128.054L33.546,129.544L32.056,129.544L32.056,128.054ZM30.566,128.054L32.056,128.054L32.056,129.544L30.566,129.544L30.566,128.054ZM29.076,128.054L30.566,128.054L30.566,129.544L29.076,129.544L29.076,128.054ZM27.587,128.054L29.077,128.054L29.077,129.544L27.587,129.544L27.587,128.054ZM26.097,128.054L27.587,128.054L27.587,129.544L26.097,129.544L26.097,128.054ZM23.118,128.054L24.608,128.054L24.608,129.544L23.118,129.544L23.118,128.054ZM45.463,126.564L46.953,126.564L46.953,128.054L45.463,128.054L45.463,126.564ZM43.973,126.564L45.463,126.564L45.463,128.054L43.973,128.054L43.973,126.564ZM40.994,126.564L42.484,126.564L42.484,128.054L40.994,128.054L40.994,126.564ZM39.504,126.564L40.994,126.564L40.994,128.054L39.504,128.054L39.504,126.564ZM38.014,126.564L39.504,126.564L39.504,128.054L38.014,128.054L38.014,126.564ZM36.525,126.564L38.015,126.564L38.015,128.054L36.525,128.054L36.525,126.564ZM35.035,126.564L36.525,126.564L36.525,128.054L35.035,128.054L35.035,126.564ZM33.545,126.564L35.035,126.564L35.035,128.054L33.545,128.054L33.545,126.564ZM29.076,126.564L30.566,126.564L30.566,128.054L29.076,128.054L29.076,126.564ZM27.587,126.564L29.077,126.564L29.077,128.054L27.587,128.054L27.587,126.564ZM21.628,126.564L23.118,126.564L23.118,128.054L21.628,128.054L21.628,126.564ZM45.463,125.074L46.953,125.074L46.953,126.564L45.463,126.564L45.463,125.074ZM40.994,125.074L42.484,125.074L42.484,126.564L40.994,126.564L40.994,125.074ZM39.504,125.074L40.994,125.074L40.994,126.564L39.504,126.564L39.504,125.074ZM33.545,125.074L35.035,125.074L35.035,126.564L33.545,126.564L33.545,125.074ZM30.566,125.074L32.056,125.074L32.056,126.564L30.566,126.564L30.566,125.074ZM29.076,125.074L30.566,125.074L30.566,126.564L29.076,126.564L29.076,125.074ZM26.097,125.074L27.587,125.074L27.587,126.564L26.097,126.564L26.097,125.074ZM24.607,125.074L26.097,125.074L26.097,126.564L24.607,126.564L24.607,125.074ZM23.118,125.074L24.608,125.074L24.608,126.564L23.118,126.564L23.118,125.074ZM45.463,123.585L46.953,123.585L46.953,125.075L45.463,125.075L45.463,123.585ZM43.973,123.585L45.463,123.585L45.463,125.075L43.973,125.075L43.973,123.585ZM40.994,123.585L42.484,123.585L42.484,125.075L40.994,125.075L40.994,123.585ZM39.504,123.585L40.994,123.585L40.994,125.075L39.504,125.075L39.504,123.585ZM36.525,123.585L38.015,123.585L38.015,125.075L36.525,125.075L36.525,123.585ZM33.545,123.585L35.035,123.585L35.035,125.075L33.545,125.075L33.545,123.585ZM32.056,123.585L33.546,123.585L33.546,125.075L32.056,125.075L32.056,123.585ZM29.076,123.585L30.566,123.585L30.566,125.075L29.076,125.075L29.076,123.585ZM45.463,122.095L46.953,122.095L46.953,123.585L45.463,123.585L45.463,122.095ZM43.973,122.095L45.463,122.095L45.463,123.585L43.973,123.585L43.973,122.095ZM40.994,122.095L42.484,122.095L42.484,123.585L40.994,123.585L40.994,122.095ZM39.504,122.095L40.994,122.095L40.994,123.585L39.504,123.585L39.504,122.095ZM33.545,122.095L35.035,122.095L35.035,123.585L33.545,123.585L33.545,122.095ZM32.056,122.095L33.546,122.095L33.546,123.585L32.056,123.585L32.056,122.095ZM26.097,122.095L27.587,122.095L27.587,123.585L26.097,123.585L26.097,122.095ZM24.607,122.095L26.097,122.095L26.097,123.585L24.607,123.585L24.607,122.095ZM23.118,122.095L24.608,122.095L24.608,123.585L23.118,123.585L23.118,122.095ZM21.628,122.095L23.118,122.095L23.118,123.585L21.628,123.585L21.628,122.095ZM40.994,120.605L42.484,120.605L42.484,122.095L40.994,122.095L40.994,120.605ZM39.504,120.605L40.994,120.605L40.994,122.095L39.504,122.095L39.504,120.605ZM38.014,120.605L39.504,120.605L39.504,122.095L38.014,122.095L38.014,120.605ZM36.525,120.605L38.015,120.605L38.015,122.095L36.525,122.095L36.525,120.605ZM35.035,120.605L36.525,120.605L36.525,122.095L35.035,122.095L35.035,120.605ZM33.545,120.605L35.035,120.605L35.035,122.095L33.545,122.095L33.545,120.605ZM32.056,120.605L33.546,120.605L33.546,122.095L32.056,122.095L32.056,120.605ZM26.097,120.605L27.587,120.605L27.587,122.095L26.097,122.095L26.097,120.605ZM24.607,120.605L26.097,120.605L26.097,122.095L24.607,122.095L24.607,120.605ZM23.118,120.605L24.608,120.605L24.608,122.095L23.118,122.095L23.118,120.605ZM21.628,120.605L23.118,120.605L23.118,122.095L21.628,122.095L21.628,120.605ZM18.649,120.605L20.139,120.605L20.139,122.095L18.649,122.095L18.649,120.605ZM17.159,120.605L18.649,120.605L18.649,122.095L17.159,122.095L17.159,120.605ZM15.669,120.605L17.159,120.605L17.159,122.095L15.669,122.095L15.669,120.605ZM14.18,120.605L15.67,120.605L15.67,122.095L14.18,122.095L14.18,120.605ZM12.69,120.605L14.18,120.605L14.18,122.095L12.69,122.095L12.69,120.605ZM9.711,120.605L11.201,120.605L11.201,122.095L9.711,122.095L9.711,120.605ZM43.973,119.116L45.463,119.116L45.463,120.606L43.973,120.606L43.973,119.116ZM39.504,119.116L40.994,119.116L40.994,120.606L39.504,120.606L39.504,119.116ZM35.035,119.116L36.525,119.116L36.525,120.606L35.035,120.606L35.035,119.116ZM33.545,119.116L35.035,119.116L35.035,120.606L33.545,120.606L33.545,119.116ZM30.566,119.116L32.056,119.116L32.056,120.606L30.566,120.606L30.566,119.116ZM29.076,119.116L30.566,119.116L30.566,120.606L29.076,120.606L29.076,119.116ZM27.587,119.116L29.077,119.116L29.077,120.606L27.587,120.606L27.587,119.116ZM23.118,119.116L24.608,119.116L24.608,120.606L23.118,120.606L23.118,119.116ZM20.138,119.116L21.628,119.116L21.628,120.606L20.138,120.606L20.138,119.116ZM17.159,119.116L18.649,119.116L18.649,120.606L17.159,120.606L17.159,119.116ZM15.669,119.116L17.159,119.116L17.159,120.606L15.669,120.606L15.669,119.116ZM14.18,119.116L15.67,119.116L15.67,120.606L14.18,120.606L14.18,119.116ZM11.201,119.116L12.691,119.116L12.691,120.606L11.201,120.606L11.201,119.116ZM45.463,117.626L46.953,117.626L46.953,119.116L45.463,119.116L45.463,117.626ZM43.973,117.626L45.463,117.626L45.463,119.116L43.973,119.116L43.973,117.626ZM42.483,117.626L43.973,117.626L43.973,119.116L42.483,119.116L42.483,117.626ZM38.014,117.626L39.504,117.626L39.504,119.116L38.014,119.116L38.014,117.626ZM36.525,117.626L38.015,117.626L38.015,119.116L36.525,119.116L36.525,117.626ZM35.035,117.626L36.525,117.626L36.525,119.116L35.035,119.116L35.035,117.626ZM29.076,117.626L30.566,117.626L30.566,119.116L29.076,119.116L29.076,117.626ZM27.587,117.626L29.077,117.626L29.077,119.116L27.587,119.116L27.587,117.626ZM26.097,117.626L27.587,117.626L27.587,119.116L26.097,119.116L26.097,117.626ZM24.607,117.626L26.097,117.626L26.097,119.116L24.607,119.116L24.607,117.626ZM23.118,117.626L24.608,117.626L24.608,119.116L23.118,119.116L23.118,117.626ZM18.649,117.626L20.139,117.626L20.139,119.116L18.649,119.116L18.649,117.626ZM9.711,117.626L11.201,117.626L11.201,119.116L9.711,119.116L9.711,117.626ZM45.463,116.136L46.953,116.136L46.953,117.626L45.463,117.626L45.463,116.136ZM40.994,116.136L42.484,116.136L42.484,117.626L40.994,117.626L40.994,116.136ZM36.525,116.136L38.015,116.136L38.015,117.626L36.525,117.626L36.525,116.136ZM33.545,116.136L35.035,116.136L35.035,117.626L33.545,117.626L33.545,116.136ZM29.076,116.136L30.566,116.136L30.566,117.626L29.076,117.626L29.076,116.136ZM27.587,116.136L29.077,116.136L29.077,117.626L27.587,117.626L27.587,116.136ZM26.097,116.136L27.587,116.136L27.587,117.626L26.097,117.626L26.097,116.136ZM24.607,116.136L26.097,116.136L26.097,117.626L24.607,117.626L24.607,116.136ZM23.118,116.136L24.608,116.136L24.608,117.626L23.118,117.626L23.118,116.136ZM21.628,116.136L23.118,116.136L23.118,117.626L21.628,117.626L21.628,116.136ZM17.159,116.136L18.649,116.136L18.649,117.626L17.159,117.626L17.159,116.136ZM12.69,116.136L14.18,116.136L14.18,117.626L12.69,117.626L12.69,116.136ZM45.463,114.647L46.953,114.647L46.953,116.137L45.463,116.137L45.463,114.647ZM43.973,114.647L45.463,114.647L45.463,116.137L43.973,116.137L43.973,114.647ZM40.994,114.647L42.484,114.647L42.484,116.137L40.994,116.137L40.994,114.647ZM38.014,114.647L39.504,114.647L39.504,116.137L38.014,116.137L38.014,114.647ZM36.525,114.647L38.015,114.647L38.015,116.137L36.525,116.137L36.525,114.647ZM35.035,114.647L36.525,114.647L36.525,116.137L35.035,116.137L35.035,114.647ZM29.076,114.647L30.566,114.647L30.566,116.137L29.076,116.137L29.076,114.647ZM27.587,114.647L29.077,114.647L29.077,116.137L27.587,116.137L27.587,114.647ZM26.097,114.647L27.587,114.647L27.587,116.137L26.097,116.137L26.097,114.647ZM24.607,114.647L26.097,114.647L26.097,116.137L24.607,116.137L24.607,114.647ZM23.118,114.647L24.608,114.647L24.608,116.137L23.118,116.137L23.118,114.647ZM18.649,114.647L20.139,114.647L20.139,116.137L18.649,116.137L18.649,114.647ZM15.669,114.647L17.159,114.647L17.159,116.137L15.669,116.137L15.669,114.647ZM14.18,114.647L15.67,114.647L15.67,116.137L14.18,116.137L14.18,114.647ZM11.201,114.647L12.691,114.647L12.691,116.137L11.201,116.137L11.201,114.647ZM9.711,114.647L11.201,114.647L11.201,116.137L9.711,116.137L9.711,114.647ZM43.973,113.157L45.463,113.157L45.463,114.647L43.973,114.647L43.973,113.157ZM38.014,113.157L39.504,113.157L39.504,114.647L38.014,114.647L38.014,113.157ZM36.525,113.157L38.015,113.157L38.015,114.647L36.525,114.647L36.525,113.157ZM35.035,113.157L36.525,113.157L36.525,114.647L35.035,114.647L35.035,113.157ZM29.076,113.157L30.566,113.157L30.566,114.647L29.076,114.647L29.076,113.157ZM24.607,113.157L26.097,113.157L26.097,114.647L24.607,114.647L24.607,113.157ZM23.118,113.157L24.608,113.157L24.608,114.647L23.118,114.647L23.118,113.157ZM21.628,113.157L23.118,113.157L23.118,114.647L21.628,114.647L21.628,113.157ZM17.159,113.157L18.649,113.157L18.649,114.647L17.159,114.647L17.159,113.157ZM15.669,113.157L17.159,113.157L17.159,114.647L15.669,114.647L15.669,113.157ZM14.18,113.157L15.67,113.157L15.67,114.647L14.18,114.647L14.18,113.157ZM9.711,113.157L11.201,113.157L11.201,114.647L9.711,114.647L9.711,113.157ZM45.463,111.667L46.953,111.667L46.953,113.157L45.463,113.157L45.463,111.667ZM43.973,111.667L45.463,111.667L45.463,113.157L43.973,113.157L43.973,111.667ZM42.483,111.667L43.973,111.667L43.973,113.157L42.483,113.157L42.483,111.667ZM39.504,111.667L40.994,111.667L40.994,113.157L39.504,113.157L39.504,111.667ZM38.014,111.667L39.504,111.667L39.504,113.157L38.014,113.157L38.014,111.667ZM36.525,111.667L38.015,111.667L38.015,113.157L36.525,113.157L36.525,111.667ZM33.545,111.667L35.035,111.667L35.035,113.157L33.545,113.157L33.545,111.667ZM30.566,111.667L32.056,111.667L32.056,113.157L30.566,113.157L30.566,111.667ZM27.587,111.667L29.077,111.667L29.077,113.157L27.587,113.157L27.587,111.667ZM24.607,111.667L26.097,111.667L26.097,113.157L24.607,113.157L24.607,111.667ZM21.628,111.667L23.118,111.667L23.118,113.157L21.628,113.157L21.628,111.667ZM20.138,111.667L21.628,111.667L21.628,113.157L20.138,113.157L20.138,111.667ZM18.649,111.667L20.139,111.667L20.139,113.157L18.649,113.157L18.649,111.667ZM17.159,111.667L18.649,111.667L18.649,113.157L17.159,113.157L17.159,111.667ZM15.669,111.667L17.159,111.667L17.159,113.157L15.669,113.157L15.669,111.667ZM12.69,111.667L14.18,111.667L14.18,113.157L12.69,113.157L12.69,111.667ZM11.201,111.667L12.691,111.667L12.691,113.157L11.201,113.157L11.201,111.667ZM45.463,110.178L46.953,110.178L46.953,111.668L45.463,111.668L45.463,110.178ZM36.525,110.178L38.015,110.178L38.015,111.668L36.525,111.668L36.525,110.178ZM33.545,110.178L35.035,110.178L35.035,111.668L33.545,111.668L33.545,110.178ZM30.566,110.178L32.056,110.178L32.056,111.668L30.566,111.668L30.566,110.178ZM24.607,110.178L26.097,110.178L26.097,111.668L24.607,111.668L24.607,110.178ZM20.138,110.178L21.628,110.178L21.628,111.668L20.138,111.668L20.138,110.178ZM17.159,110.178L18.649,110.178L18.649,111.668L17.159,111.668L17.159,110.178ZM14.18,110.178L15.67,110.178L15.67,111.668L14.18,111.668L14.18,110.178ZM43.973,108.688L45.463,108.688L45.463,110.178L43.973,110.178L43.973,108.688ZM39.504,108.688L40.994,108.688L40.994,110.178L39.504,110.178L39.504,108.688ZM33.545,108.688L35.035,108.688L35.035,110.178L33.545,110.178L33.545,108.688ZM30.566,108.688L32.056,108.688L32.056,110.178L30.566,110.178L30.566,108.688ZM29.076,108.688L30.566,108.688L30.566,110.178L29.076,110.178L29.076,108.688ZM27.587,108.688L29.077,108.688L29.077,110.178L27.587,110.178L27.587,108.688ZM26.097,108.688L27.587,108.688L27.587,110.178L26.097,110.178L26.097,108.688ZM23.118,108.688L24.608,108.688L24.608,110.178L23.118,110.178L23.118,108.688ZM18.649,108.688L20.139,108.688L20.139,110.178L18.649,110.178L18.649,108.688ZM15.669,108.688L17.159,108.688L17.159,110.178L15.669,110.178L15.669,108.688ZM12.69,108.688L14.18,108.688L14.18,110.178L12.69,110.178L12.69,108.688ZM9.711,108.688L11.201,108.688L11.201,110.178L9.711,110.178L9.711,108.688ZM33.545,107.198L35.035,107.198L35.035,108.688L33.545,108.688L33.545,107.198ZM30.566,107.198L32.056,107.198L32.056,108.688L30.566,108.688L30.566,107.198ZM29.076,107.198L30.566,107.198L30.566,108.688L29.076,108.688L29.076,107.198ZM23.118,107.198L24.608,107.198L24.608,108.688L23.118,108.688L23.118,107.198ZM33.545,105.709L35.035,105.709L35.035,107.199L33.545,107.199L33.545,105.709ZM30.566,105.709L32.056,105.709L32.056,107.199L30.566,107.199L30.566,105.709ZM27.587,105.709L29.077,105.709L29.077,107.199L27.587,107.199L27.587,105.709ZM24.607,105.709L26.097,105.709L26.097,107.199L24.607,107.199L24.607,105.709ZM21.628,105.709L23.118,105.709L23.118,107.199L21.628,107.199L21.628,105.709ZM33.545,104.219L35.035,104.219L35.035,105.709L33.545,105.709L33.545,104.219ZM32.056,104.219L33.546,104.219L33.546,105.709L32.056,105.709L32.056,104.219ZM27.587,104.219L29.077,104.219L29.077,105.709L27.587,105.709L27.587,104.219ZM24.607,104.219L26.097,104.219L26.097,105.709L24.607,105.709L24.607,104.219ZM33.545,102.729L35.035,102.729L35.035,104.219L33.545,104.219L33.545,102.729ZM32.056,102.729L33.546,102.729L33.546,104.219L32.056,104.219L32.056,102.729ZM27.587,102.729L29.077,102.729L29.077,104.219L27.587,104.219L27.587,102.729ZM26.097,102.729L27.587,102.729L27.587,104.219L26.097,104.219L26.097,102.729ZM23.118,102.729L24.608,102.729L24.608,104.219L23.118,104.219L23.118,102.729ZM21.628,102.729L23.118,102.729L23.118,104.219L21.628,104.219L21.628,102.729ZM30.566,101.24L32.056,101.24L32.056,102.73L30.566,102.73L30.566,101.24ZM29.076,101.24L30.566,101.24L30.566,102.73L29.076,102.73L29.076,101.24ZM23.118,101.24L24.608,101.24L24.608,102.73L23.118,102.73L23.118,101.24ZM32.056,99.75L33.546,99.75L33.546,101.24L32.056,101.24L32.056,99.75ZM24.607,99.75L26.097,99.75L26.097,101.24L24.607,101.24L24.607,99.75ZM23.118,99.75L24.608,99.75L24.608,101.24L23.118,101.24L23.118,99.75ZM33.545,98.261L35.035,98.261L35.035,99.751L33.545,99.751L33.545,98.261ZM32.056,98.261L33.546,98.261L33.546,99.751L32.056,99.751L32.056,98.261ZM23.118,98.261L24.608,98.261L24.608,99.751L23.118,99.751L23.118,98.261ZM21.628,98.261L23.118,98.261L23.118,99.751L21.628,99.751L21.628,98.261ZM33.545,96.771L35.035,96.771L35.035,98.261L33.545,98.261L33.545,96.771ZM32.056,96.771L33.546,96.771L33.546,98.261L32.056,98.261L32.056,96.771ZM27.587,96.771L29.077,96.771L29.077,98.261L27.587,98.261L27.587,96.771ZM24.607,96.771L26.097,96.771L26.097,98.261L24.607,98.261L24.607,96.771Z" style="fill:rgb(212,175,52);fill-rule:nonzero;"/>
            </g>
            <g transform="matrix(1,0,0,1,0,-115.837)">
                <path d="M11.454,132.27L18.426,132.27L18.426,125.298L11.454,125.298L11.454,132.27ZM9.711,123.556L20.168,123.556L20.168,134.013L9.711,134.013L9.711,123.556Z" style="fill:rgb(212,175,52);fill-rule:nonzero;"/>
            </g>
            <g transform="matrix(1,0,0,1,0,-115.867)">
                <rect x="12.69" y="126.565" width="4.469" height="4.469" style="fill:rgb(212,175,52);"/>
            </g>
            <g transform="matrix(1,0,0,1,0,-62.209)">
                <path d="M11.454,105.456L18.426,105.456L18.426,98.484L11.454,98.484L11.454,105.456ZM9.711,96.742L20.168,96.742L20.168,107.199L9.711,107.199L9.711,96.742Z" style="fill:rgb(212,175,52);fill-rule:nonzero;"/>
            </g>
            <g transform="matrix(1,0,0,1,0,-62.239)">
                <rect x="12.69" y="99.751" width="4.469" height="4.469" style="fill:rgb(212,175,52);"/>
            </g>
            <g transform="matrix(1,0,0,1,0,-115.837)">
                <path d="M38.268,132.27L45.24,132.27L45.24,125.298L38.268,125.298L38.268,132.27ZM36.525,123.556L46.982,123.556L46.982,134.013L36.525,134.013L36.525,123.556Z" style="fill:rgb(212,175,52);fill-rule:nonzero;"/>
            </g>
            <g transform="matrix(1,0,0,1,0,-115.867)">
                <rect x="39.504" y="126.565" width="4.469" height="4.469" style="fill:rgb(212,175,52);"/>
            </g>
        </g>
    </g>
</svg>
