<?xml version="1.0" encoding="UTF-8" standalone="no"?>
<!DOCTYPE svg PUBLIC "-//W3C//DTD SVG 1.1//EN" "http://www.w3.org/Graphics/SVG/1.1/DTD/svg11.dtd">
<svg width="100%" height="100%" viewBox="0 0 1063 591" version="1.1" xmlns="http://www.w3.org/2000/svg" xmlns:xlink="http://www.w3.org/1999/xlink" xml:space="preserve" xmlns:serif="http://www.serif.com/" style="fill-rule:evenodd;clip-rule:evenodd;stroke-linejoin:round;stroke-miterlimit:2;">
    <g transform="matrix(1,0,0,1,-1195.865625,0)">
        <g id="Page-2" serif:id="Page 2" transform="matrix(4.166667,0,0,4.166667,1195.865625,0)">
            <rect x="0" y="0" width="255.118" height="141.732" style="fill:none;"/>
            <g id="Background">
                <rect x="0" y="0" width="255.118" height="141.732" style="fill:rgb(212,175,52);"/>
                <g transform="matrix(-1,0,0,1,255.117,-0.001)">
                    <rect x="2.834" y="2.835" width="249.449" height="136.063" style="fill:rgb(3,4,4);"/>
                </g>
            </g>
            <g id="Logo">
                <g transform="matrix(1,0,0,1,179.1024,22.2688)">
                    <path d="M0,54.601C-14.832,49.97 -27.723,38.931 -25.997,29.989C-23.901,19.126 -5.873,16.648 1.998,0C1.998,0 -4.359,12.622 0,11.32C8.96,8.642 19.116,9.562 26.629,10.96C24.057,11.23 21.596,11.533 19.246,11.867C16.712,12.228 14.307,12.625 12.03,13.055C-15.806,18.323 -24.572,28.674 -16.568,39.833C-15.019,41.992 -12.619,38.728 -12.895,34.418C-9.676,47.051 -4.929,50.517 0,54.601" style="fill:rgb(212,175,53);"/>
                </g>
                <g transform="matrix(1,0,0,1,180.7471,76.0539)">
                    <path d="M0,-53.06C0.12,-53.299 0.238,-53.54 0.354,-53.785C0.354,-53.785 0.218,-53.516 0,-53.06M0,-53.06C-8.044,-37.062 -25.577,-34.499 -27.642,-23.796C-29.367,-14.855 -16.477,-3.815 -1.645,0.816C-6.574,-3.268 -11.32,-6.734 -14.54,-19.368C-14.264,-15.057 -16.664,-11.793 -18.213,-13.953C-26.216,-25.111 -17.45,-35.463 10.385,-40.73C12.663,-41.161 15.068,-41.558 17.602,-41.918C19.951,-42.252 22.412,-42.556 24.984,-42.825C17.471,-44.223 7.315,-45.143 -1.645,-42.465C-5.367,-41.353 -1.275,-50.395 0,-53.06M-1.83,-54.245C-1.674,-54.573 -1.581,-54.76 -1.581,-54.76C-1.048,-55.819 0.238,-56.252 1.304,-55.732C2.37,-55.212 2.819,-53.931 2.312,-52.859C2.182,-52.584 2.049,-52.312 1.913,-52.043C1.253,-50.664 -0.105,-47.689 -0.73,-45.332C-0.763,-45.209 -0.793,-45.076 -0.819,-44.941C8.115,-47.225 17.982,-46.331 25.381,-44.955C26.439,-44.758 27.192,-43.815 27.149,-42.74C27.106,-41.664 26.281,-40.783 25.21,-40.671C22.666,-40.404 20.231,-40.104 17.907,-39.773C15.407,-39.418 13.035,-39.026 10.788,-38.601C-2.542,-36.079 -11.353,-32.459 -15.827,-28.014C-17.723,-26.13 -18.765,-24.124 -18.872,-21.995C-18.963,-20.162 -18.375,-18.275 -17.2,-16.342C-16.93,-17.13 -16.638,-18.242 -16.701,-19.229C-16.773,-20.346 -15.982,-21.333 -14.878,-21.507C-13.773,-21.682 -12.717,-20.986 -12.44,-19.902C-9.401,-7.976 -4.916,-4.707 -0.263,-0.852C0.534,-0.192 0.753,0.94 0.259,1.849C-0.234,2.759 -1.303,3.192 -2.29,2.884C-11.604,-0.025 -20.167,-5.38 -25.152,-11.194C-28.828,-15.479 -30.568,-20.067 -29.769,-24.206C-28.832,-29.061 -25.191,-32.532 -20.424,-36.002C-14.371,-40.407 -6.41,-44.957 -1.83,-54.245" style="fill:rgb(3,4,5);"/>
                </g>
                <g transform="matrix(1,0,0,1,46.9506,9.1042)">
                    <path d="M0,44.233C32.739,10.1 56.181,6.357 84.534,18.51C80.526,15.106 76.155,11.552 62.196,8.862C70.246,8.36 73.348,8.461 79.031,10.585C68.799,2.11 57.796,0 49.574,0.99C49.574,0.99 53.684,1.958 52.179,4.902C49.541,10.061 43.125,2.277 43.125,2.277C29.721,6.067 14.377,22.927 0,44.233" style="fill:rgb(3,4,5);"/>
                </g>
                <g transform="matrix(1,0,0,1,46.9506,9.2902)">
                    <path d="M0,44.047C32.739,9.914 56.181,6.171 84.534,18.324C80.526,14.92 76.155,11.366 62.196,8.676C70.246,8.174 73.348,8.275 79.031,10.399C68.799,1.924 57.796,-0.186 49.574,0.804C49.574,0.804 53.684,1.772 52.179,4.716C49.541,9.875 43.125,2.091 43.125,2.091C29.721,5.881 14.377,22.741 0,44.047M50.321,3.553C50.227,3.475 50.021,3.308 49.895,3.239C49.474,3.012 49.078,2.913 49.078,2.913C48.055,2.672 47.353,1.732 47.412,0.684C47.47,-0.365 48.272,-1.221 49.315,-1.346C57.991,-2.392 69.616,-0.212 80.413,8.731C81.227,9.405 81.436,10.569 80.906,11.484C80.691,11.855 80.38,12.142 80.021,12.326C82.482,13.757 84.239,15.231 85.936,16.672C86.753,17.366 86.94,18.553 86.376,19.464C85.812,20.375 84.666,20.737 83.681,20.315C72.715,15.615 62.516,13.337 52.191,14.452C36.561,16.14 20.731,25.563 1.563,45.546C0.785,46.358 -0.485,46.439 -1.361,45.733C-2.236,45.026 -2.425,43.768 -1.796,42.835C12.933,21.008 28.804,3.89 42.535,0.006C43.363,-0.228 44.25,0.049 44.797,0.713C44.797,0.713 46.19,2.409 47.872,3.541C48.264,3.804 48.67,4.038 49.079,4.188C49.338,4.282 49.588,4.402 49.815,4.29C49.997,4.201 50.114,3.995 50.25,3.73C50.276,3.678 50.303,3.606 50.321,3.553" style="fill:rgb(212,175,53);"/>
                </g>
                <g transform="matrix(1,0,0,1,111.0105,83.0577)">
                    <path d="M0,-53.365C34.543,-37.757 31.782,-27.983 -17.176,-6.76C-11.052,-8.293 -8.908,-5.558 -12.914,0C4.788,-5.461 23.345,-18.123 23.345,-18.123C23.345,-18.123 16.869,-18.785 19.981,-21.966C23.394,-25.454 27.51,-22.621 28.147,-23.55C38.853,-39.149 31.95,-48.396 0,-53.365" style="fill:rgb(3,4,5);"/>
                </g>
                <g transform="matrix(1,0,0,1,111.0105,83.0957)">
                    <path d="M0,-53.403C34.543,-37.795 31.782,-28.021 -17.176,-6.798C-11.052,-8.331 -8.908,-5.596 -12.914,-0.038C4.788,-5.499 23.345,-18.161 23.345,-18.161C23.345,-18.161 16.869,-18.823 19.981,-22.004C23.394,-25.492 27.51,-22.659 28.147,-23.588C38.853,-39.187 31.95,-48.434 0,-53.403M21.87,-20.802L23.566,-20.316C24.471,-20.223 25.221,-19.575 25.445,-18.693C25.669,-17.812 25.318,-16.884 24.566,-16.371C24.566,-16.371 5.709,-3.516 -12.275,2.032C-13.165,2.307 -14.131,1.982 -14.674,1.226C-15.217,0.47 -15.216,-0.549 -14.671,-1.304C-13.864,-2.424 -13.339,-3.388 -13.124,-4.205C-13.051,-4.483 -12.933,-4.703 -13.042,-4.866C-13.146,-5.019 -13.379,-4.989 -13.638,-5.022C-14.428,-5.123 -15.439,-5 -16.65,-4.697C-17.744,-4.423 -18.865,-5.035 -19.227,-6.102C-19.589,-7.17 -19.072,-8.338 -18.037,-8.786C-0.719,-16.293 10.74,-22.298 16.7,-27.681C19.967,-30.632 21.505,-33.206 20.87,-35.864C20.432,-37.694 19.046,-39.446 16.893,-41.289C13.135,-44.505 7.158,-47.792 -0.892,-51.429C-1.88,-51.875 -2.385,-52.982 -2.076,-54.021C-1.767,-55.06 -0.738,-55.71 0.333,-55.544C12.172,-53.702 20.658,-51.249 26.172,-48.167C30.256,-45.884 32.807,-43.21 34.062,-40.232C36.122,-35.343 34.757,-29.391 29.933,-22.363C29.453,-21.663 28.583,-21.115 27.181,-21.245C26.704,-21.289 26.064,-21.435 25.323,-21.545C24.34,-21.691 23.055,-21.776 21.87,-20.802" style="fill:rgb(212,175,53);"/>
                </g>
                <g transform="matrix(1,0,0,1,40.9367,114.6658)">
                    <path d="M0,-76.6C46.722,-83.445 37.578,-61.991 36.478,-34.162C36.418,-32.65 32.847,-19.969 32.847,-19.969C36.365,-24.385 36.249,-26.842 39.241,-27.206C40.947,-22.464 33.026,1.407 24.877,12.498C37.755,-1.414 40.449,0.277 46.983,12.498C46.765,4.47 36.171,-16.525 42.267,-14.317C44.66,-13.45 48.281,-6.673 48.281,-6.673C48.281,-6.673 46.047,-16.681 45.957,-18.702C43.461,-74.941 50.508,-89.098 0,-76.6" style="fill:rgb(3,4,5);"/>
                </g>
                <g transform="matrix(1,0,0,1,40.9367,117.0678)">
                    <path d="M0,-79.002C46.722,-85.847 37.578,-64.393 36.478,-36.564C36.418,-35.052 32.847,-22.371 32.847,-22.371C36.365,-26.787 36.249,-29.244 39.241,-29.608C40.947,-24.866 33.026,-0.995 24.877,10.096C37.755,-3.816 40.449,-2.125 46.983,10.096C46.765,2.068 36.171,-18.927 42.267,-16.719C44.66,-15.852 48.281,-9.075 48.281,-9.075C48.281,-9.075 46.047,-19.083 45.957,-21.104C43.461,-77.343 50.508,-91.5 0,-79.002M42.73,-13.569C42.868,-12.839 43.072,-12.016 43.319,-11.124C45.116,-4.63 49.014,5.103 49.149,10.037C49.176,11.041 48.509,11.932 47.538,12.19C46.567,12.447 45.546,12.003 45.073,11.117C43.524,8.22 42.216,5.938 40.914,4.364C40.004,3.264 39.19,2.527 38.162,2.457C37.003,2.378 35.755,3.047 34.136,4.248C32.049,5.796 29.569,8.216 26.467,11.567C25.687,12.41 24.384,12.498 23.498,11.766C22.612,11.035 22.451,9.739 23.132,8.813C28.692,1.245 34.125,-12.437 36.325,-21.545C36.58,-22.601 36.791,-23.592 36.952,-24.501C36.351,-23.511 35.601,-22.351 34.542,-21.021C33.899,-20.215 32.777,-19.973 31.859,-20.443C30.942,-20.913 30.483,-21.966 30.762,-22.958C30.762,-22.958 34.256,-35.19 34.314,-36.649C34.706,-46.58 36.147,-55.691 35.65,-62.97C35.356,-67.283 34.398,-70.908 31.807,-73.506C29.629,-75.69 26.341,-77.102 21.554,-77.741C16.315,-78.441 9.402,-78.19 0.314,-76.859C-0.829,-76.691 -1.903,-77.45 -2.126,-78.584C-2.348,-79.718 -1.642,-80.827 -0.52,-81.105C11.873,-84.171 20.881,-85.636 27.444,-85.345C32.247,-85.133 35.84,-83.985 38.57,-81.957C42.603,-78.96 44.835,-73.946 45.982,-66.532C47.546,-56.421 47.218,-41.552 48.122,-21.2C48.208,-19.241 50.395,-9.547 50.395,-9.547C50.631,-8.49 50.05,-7.421 49.034,-7.044C48.019,-6.668 46.881,-7.099 46.37,-8.055C46.37,-8.055 45.14,-10.358 43.668,-12.378C43.362,-12.796 43.047,-13.203 42.73,-13.569" style="fill:rgb(212,175,53);"/>
                </g>
                <g transform="matrix(1,0,0,1,93.0666,114.4291)">
                    <path d="M0,-18.378C0.569,-17.446 0.285,-15.247 2.022,-13.513C3.311,-12.226 6.75,-11.414 7.008,-10.413C7.151,-9.86 2.665,-11.235 2.787,-10.65C3.202,-8.66 3.498,-6.494 3.68,-4.217C14.697,-4.683 23.805,-0.784 32.547,3.949C32.547,3.949 39.647,7.757 40.264,10.004C40.835,12.079 36.253,17.433 36.253,17.433C36.253,17.433 40.193,15.571 41.7,14.539C43.309,13.437 48.879,15.423 48.879,15.423C53.132,15.788 55.599,14.367 56.286,11.166C56.286,11.166 51.883,11.212 50.019,10.217C47.588,8.919 41.7,3.38 41.7,3.38L41.7,-0.798L36.253,0.721L26.234,-3.883C22.792,-3.004 29.779,-6.558 28.999,-6.579C23.748,-6.719 21.595,-4.534 17.145,-8.418C14.355,-10.853 10.969,-14.099 7.858,-15.422C7.858,-15.422 13.438,-13.595 16.744,-13.55C24.769,-13.439 34.701,-8.649 41.7,-8.411C45.165,-8.293 47.895,-6.253 51.133,-4.072C53.119,-2.735 56.661,-2.88 56.661,-2.88C56.661,-2.88 49.601,-0.211 50.31,0.067C51.019,0.346 58.256,-1.361 60.915,-1.209C62.546,-1.116 65.777,0.006 65.777,0.006C66.383,-1.088 66.68,-5.599 66.68,-5.599L65.217,-5.457C65.217,-5.457 66.417,-1.881 61.678,-5.247C61.435,-5.42 65.217,-5.457 65.217,-5.457L66.68,-5.599C66.68,-5.599 66.946,-7.936 65.321,-8.654C59.421,-7.067 49.608,-9.733 36.253,-16.25C35.538,-16.458 34.205,-17.355 34.205,-17.355L31.553,-18.542C31.553,-18.542 24.082,-14.814 23.388,-18.457C23.263,-19.114 23.408,-20.757 23.961,-20.389C26.084,-18.972 31.472,-18.058 31.553,-18.542L34.205,-17.355C34.205,-17.355 30.5,-22.102 30.225,-22.605C25.999,-22.536 25.017,-23.776 22.055,-25.425C18.454,-26.418 13.887,-25.334 11.193,-29.633C8.075,-32.1 3.638,-34.033 -0.812,-35.075C-3.311,-35.661 -7.449,-35.811 -7.449,-35.811C-7.449,-35.811 -2.428,-34.281 2.195,-31.233C5.784,-28.867 9.088,-24.43 8.347,-22.605C8.347,-22.605 1.227,-21.488 0,-19.535C-0.225,-19.177 -0.252,-18.791 0,-18.378" style="fill:rgb(3,4,5);"/>
                </g>
                <g transform="matrix(1,0,0,1,124.3792,114.6684)">
                    <path d="M0,-18.666C-1.284,-18.066 -7.305,-15.444 -7.924,-18.696C-8.049,-19.353 -7.904,-20.997 -7.352,-20.628C-5.481,-19.38 -1.078,-18.522 0,-18.666C0.154,-18.738 0.24,-18.781 0.24,-18.781C0.231,-18.723 0.146,-18.686 0,-18.666M33.905,-5.696C33.905,-5.696 35.104,-2.12 30.366,-5.486C30.123,-5.659 33.905,-5.696 33.905,-5.696M2.893,-17.594C2.893,-17.594 -0.813,-22.341 -1.087,-22.844C-5.313,-22.776 -6.296,-24.015 -9.257,-25.664C-12.859,-26.657 -17.425,-25.573 -20.119,-29.872C-23.238,-32.339 -27.675,-34.272 -32.125,-35.315C-34.623,-35.9 -38.761,-36.05 -38.761,-36.05C-38.761,-36.05 -33.741,-34.521 -29.117,-31.472C-25.529,-29.106 -22.225,-24.67 -22.965,-22.844C-22.965,-22.844 -30.086,-21.727 -31.313,-19.774C-31.537,-19.416 -31.564,-19.03 -31.313,-18.617C-30.744,-17.685 -31.027,-15.486 -29.29,-13.752C-28.001,-12.465 -24.562,-11.653 -24.304,-10.653C-24.161,-10.099 -28.648,-11.474 -28.526,-10.889C-28.111,-8.899 -27.814,-6.734 -27.632,-4.456C-16.615,-4.922 -7.508,-1.023 1.234,3.71C1.234,3.71 8.334,7.517 8.952,9.765C9.522,11.84 4.941,17.194 4.941,17.194C4.941,17.194 8.88,15.332 10.387,14.3C11.997,13.197 17.567,15.184 17.567,15.184C21.819,15.548 24.286,14.128 24.973,10.927C24.973,10.927 20.57,10.972 18.706,9.977C16.275,8.68 10.387,3.14 10.387,3.14L10.387,-1.038L4.941,0.482L-5.078,-4.122C-8.52,-3.243 -1.533,-6.798 -2.313,-6.819C-7.565,-6.959 -9.717,-4.773 -14.167,-8.657C-16.957,-11.092 -20.344,-14.338 -23.454,-15.661C-23.454,-15.661 -17.875,-13.834 -14.569,-13.789C-6.544,-13.679 3.389,-8.888 10.387,-8.65C13.852,-8.532 16.583,-6.492 19.821,-4.311C21.807,-2.974 25.349,-3.12 25.349,-3.12C25.349,-3.12 18.289,-0.451 18.998,-0.172C19.707,0.106 26.944,-1.6 29.603,-1.448C31.233,-1.355 34.464,-0.233 34.464,-0.233C35.071,-1.328 35.368,-5.838 35.368,-5.838C35.368,-5.838 35.633,-8.175 34.009,-8.893C28.108,-7.307 18.296,-9.973 4.941,-16.489C4.226,-16.697 2.893,-17.594 2.893,-17.594M4.393,-19.191C4.71,-18.98 5.215,-18.665 5.545,-18.57C5.664,-18.535 5.779,-18.491 5.891,-18.436C13.693,-14.629 20.248,-12.154 25.489,-11.131C28.685,-10.507 31.344,-10.42 33.446,-10.985C33.924,-11.113 34.431,-11.074 34.884,-10.874C36.161,-10.31 36.886,-9.274 37.245,-8.189C37.601,-7.115 37.555,-6.027 37.529,-5.696C37.529,-5.696 37.374,-3.357 37.061,-1.556C36.883,-0.528 36.616,0.354 36.359,0.817C35.848,1.739 34.749,2.159 33.754,1.813C33.754,1.813 30.915,0.796 29.479,0.714C27.439,0.598 22.595,1.659 20.388,1.937C19.267,2.078 18.482,1.953 18.206,1.844C18.012,1.768 17.852,1.676 17.719,1.581L17.336,1.237L17.041,0.812L16.843,0.291C16.718,-0.228 16.679,-1.051 17.461,-1.844C17.63,-2.015 17.996,-2.286 18.519,-2.577C15.692,-4.487 13.35,-6.381 10.314,-6.485C6.666,-6.609 2.247,-7.89 -2.299,-9.184C-6.345,-10.335 -10.502,-11.498 -14.25,-11.615C-13.733,-11.159 -13.229,-10.713 -12.743,-10.289C-10.726,-8.529 -9.344,-8.392 -7.696,-8.562C-6.163,-8.722 -4.47,-9.043 -2.255,-8.984L-1.324,-8.76L-0.665,-8.271L-0.337,-7.805L-0.138,-7.263L-0.132,-6.337L-0.504,-5.489C-0.6,-5.354 -0.879,-5.084 -1.292,-4.766L5.124,-1.818L9.805,-3.124C10.458,-3.306 11.158,-3.173 11.697,-2.763C12.237,-2.353 12.554,-1.715 12.554,-1.038L12.554,2.201C14.108,3.643 17.919,7.101 19.727,8.066C21.276,8.894 24.951,8.761 24.951,8.761C25.609,8.754 26.235,9.047 26.651,9.557C27.068,10.066 27.23,10.738 27.091,11.381C26.704,13.186 25.879,14.57 24.688,15.571C23.065,16.937 20.652,17.622 17.382,17.342C17.197,17.326 17.014,17.287 16.839,17.224C16.839,17.224 15.018,16.573 13.244,16.27C12.638,16.166 11.677,16.169 11.488,16.17C9.816,17.274 5.866,19.152 5.866,19.152C4.943,19.589 3.839,19.321 3.219,18.509C2.599,17.697 2.63,16.562 3.295,15.786C3.295,15.786 4.822,14.002 5.93,12.16C6.283,11.573 6.653,10.635 6.785,10.291C6.574,10.051 6.069,9.494 5.637,9.139C3.479,7.365 0.211,5.619 0.211,5.619L0.203,5.615C-8.204,1.063 -16.946,-2.74 -27.541,-2.292C-28.704,-2.243 -29.699,-3.122 -29.792,-4.283C-29.966,-6.465 -30.249,-8.54 -30.646,-10.447L-30.68,-11.17L-30.455,-11.89C-30.587,-11.998 -30.709,-12.108 -30.821,-12.219C-32.017,-13.413 -32.544,-14.752 -32.843,-15.968C-32.986,-16.549 -33.176,-17.446 -33.197,-17.548C-33.906,-18.752 -33.804,-19.879 -33.147,-20.926C-32.603,-21.793 -31.362,-22.679 -29.768,-23.312C-28.396,-23.857 -26.754,-24.279 -25.468,-24.563C-25.522,-24.673 -25.578,-24.779 -25.636,-24.876C-26.629,-26.536 -28.428,-28.423 -30.309,-29.664C-34.665,-32.535 -39.393,-33.978 -39.393,-33.978C-40.434,-34.295 -41.078,-35.335 -40.898,-36.408C-40.718,-37.481 -39.77,-38.255 -38.683,-38.215C-38.683,-38.215 -34.286,-38.046 -31.631,-37.424C-26.862,-36.307 -22.117,-34.215 -18.775,-31.571C-18.581,-31.418 -18.415,-31.232 -18.283,-31.022C-17.08,-29.102 -15.324,-28.718 -13.573,-28.483C-11.906,-28.26 -10.213,-28.175 -8.682,-27.753C-8.515,-27.707 -8.355,-27.641 -8.204,-27.557C-5.625,-26.121 -4.802,-24.951 -1.122,-25.01C-0.318,-25.024 0.428,-24.589 0.814,-23.883C1.036,-23.477 3.633,-20.159 4.393,-19.191" style="fill:rgb(212,175,53);"/>
                </g>
                <g transform="matrix(1,0,0,1,148.0451,116.3204)">
                    <path d="M0,2.713C22.159,8.852 39.61,6.003 50.808,-8.942C52.362,-11.016 46.53,0.619 48.987,0.489C54.502,0.197 58.656,-6.552 62.115,-12.72C60.246,-1.334 56.882,3.034 48.502,5.954C44.785,7.249 39.692,8.305 39.692,8.305C42.09,12.599 43.665,11.844 51.328,12.443C34.244,15.433 22.243,12.822 0,2.713" style="fill:rgb(212,175,53);"/>
                </g>
                <g transform="matrix(1,0,0,1,148.0451,116.1354)">
                    <path d="M0,2.898C22.243,13.007 34.244,15.618 51.328,12.628C43.665,12.029 42.09,12.784 39.692,8.49C39.692,8.49 44.785,7.434 48.502,6.139C56.882,3.219 60.246,-1.149 62.115,-12.535C58.656,-6.367 54.502,0.382 48.987,0.674C46.53,0.804 52.362,-10.831 50.808,-8.757C39.61,6.188 22.159,9.037 0,2.898M50.94,-2.027C52.292,-2.662 53.517,-3.798 54.684,-5.145C56.755,-7.536 58.568,-10.639 60.225,-13.594C60.74,-14.512 61.839,-14.927 62.831,-14.579C63.823,-14.232 64.423,-13.221 64.252,-12.184C63.034,-4.763 61.127,-0.13 57.913,3.109C55.73,5.31 52.926,6.892 49.215,8.185C47.485,8.787 45.467,9.34 43.773,9.765C44.381,9.983 45.112,10.048 46.058,10.122C47.447,10.231 49.198,10.289 51.497,10.469C52.585,10.554 53.439,11.435 53.491,12.525C53.543,13.615 52.776,14.574 51.701,14.762C34.199,17.825 21.891,15.226 -0.896,4.87C-1.926,4.402 -2.422,3.221 -2.036,2.158C-1.65,1.096 -0.511,0.508 0.578,0.81C21.704,6.663 38.398,4.192 49.074,-10.056C50.788,-12.344 52.696,-10.516 52.953,-10.06C53.068,-9.858 53.419,-9.065 53.04,-7.893C52.743,-6.974 51.817,-4.781 51.153,-2.761C51.078,-2.534 51.007,-2.282 50.94,-2.027" style="fill:rgb(3,4,5);"/>
                </g>
                <g transform="matrix(1,0,0,1,202.8678,56.6869)">
                    <path d="M0,51.301C1.09,35.541 -12.156,33.552 -43.709,29.865C-33.647,28.476 -30.336,30.102 -28.627,26.977C-44.784,21.805 -52.24,16.106 -54.823,0C-51.939,14.481 -35.314,22.553 -15.801,26.977C-13.383,27.525 -10.221,24.219 -15.489,17.645C1.626,34.099 5.825,40.843 0,51.301" style="fill:rgb(212,175,53);"/>
                </g>
                <g transform="matrix(1,0,0,1,202.8678,56.7109)">
                    <path d="M0,51.277C5.825,40.819 1.626,34.075 -15.489,17.621C-10.221,24.195 -13.383,27.501 -15.801,26.953C-35.314,22.529 -51.939,14.457 -54.823,-0.024C-52.24,16.082 -44.784,21.781 -28.627,26.953C-30.336,30.078 -33.647,28.452 -43.709,29.841C-12.156,33.528 1.09,35.517 0,51.277M-35.08,26.979C-42.188,24.205 -47.283,20.976 -50.866,16.249C-53.889,12.259 -55.861,7.183 -56.962,0.319C-57.149,-0.847 -56.368,-1.948 -55.206,-2.157C-54.044,-2.365 -52.929,-1.605 -52.698,-0.448C-51.369,6.225 -46.803,11.365 -40.393,15.403C-33.622,19.668 -24.819,22.687 -15.322,24.84C-15.104,24.89 -14.93,24.668 -14.851,24.383C-14.525,23.195 -15.198,21.448 -17.179,18.976C-17.894,18.085 -17.793,16.792 -16.95,16.022C-16.107,15.252 -14.811,15.268 -13.988,16.059C-6.994,22.783 -2.126,27.933 0.835,32.36C3.271,36.003 4.47,39.228 4.622,42.402C4.774,45.602 3.868,48.785 1.892,52.331C1.399,53.217 0.356,53.642 -0.617,53.354C-1.589,53.065 -2.231,52.14 -2.161,51.128C-1.927,47.742 -2.396,45.083 -3.755,42.969C-5.123,40.841 -7.359,39.301 -10.437,38.035C-17.435,35.157 -28.452,33.805 -43.961,31.993C-45.044,31.866 -45.864,30.954 -45.875,29.864C-45.887,28.773 -45.086,27.845 -44.005,27.695C-40.144,27.162 -37.263,27.065 -35.08,26.979" style="fill:rgb(3,4,5);"/>
                </g>
                <g transform="matrix(1,0,0,1,192.8063,54.4918)">
                    <path d="M0,-15.566C15.365,-13.591 21.26,-7.559 18.474,2.195C18.474,2.195 26.427,-6.912 16.044,-13.706C9.846,-17.761 0,-15.566 0,-15.566" style="fill:rgb(212,175,53);"/>
                </g>
                <g transform="matrix(1,0,0,1,192.8063,54.6438)">
                    <path d="M0,-15.718C15.365,-13.743 21.26,-7.711 18.474,2.043C18.474,2.043 26.427,-7.064 16.044,-13.858C9.846,-17.913 0,-15.718 0,-15.718M-0.471,-17.832C-0.471,-17.832 10.387,-20.148 17.23,-15.67C20.947,-13.238 22.626,-10.503 23.252,-7.941C24.724,-1.918 20.106,3.468 20.106,3.468C19.439,4.232 18.331,4.43 17.44,3.946C16.548,3.461 16.113,2.423 16.392,1.448C17.307,-1.757 17.181,-4.481 15.773,-6.689C13.444,-10.343 8.075,-12.496 -0.276,-13.569C-1.32,-13.703 -2.116,-14.568 -2.164,-15.619C-2.212,-16.67 -1.498,-17.603 -0.471,-17.832" style="fill:rgb(3,4,5);"/>
                </g>
                <g transform="matrix(0.055522,0.998457,0.998457,-0.055522,172.935641,98.406677)">
                    <path d="M12.553,-8.606C10.398,0.045 10.479,0.807 5.542,6.107C5.542,6.107 11.054,1.921 12.553,3.065C14.051,4.208 14.532,12.968 14.532,12.968C16.357,8.421 16.25,1.086 12.553,-8.606" style="fill:rgb(212,175,53);"/>
                </g>
                <g transform="matrix(1,0,0,1,165.0396,106.655)">
                    <path d="M0,4.763C9.883,7.916 17.212,7.616 21.651,5.541C21.651,5.541 12.878,5.547 11.653,4.115C10.428,2.682 14.301,-3.054 14.301,-3.054C9.284,2.17 8.518,2.131 0,4.763M13.744,2.701C14.043,2.781 14.396,2.867 14.701,2.917C17.557,3.383 21.649,3.375 21.649,3.375C22.665,3.374 23.545,4.079 23.765,5.07C23.986,6.062 23.488,7.073 22.568,7.503C17.808,9.729 9.942,10.209 -0.658,6.827C-1.56,6.539 -2.171,5.699 -2.166,4.753C-2.162,3.807 -1.544,2.973 -0.639,2.693C7.313,0.237 8.054,0.323 12.739,-4.555C13.518,-5.366 14.788,-5.446 15.662,-4.739C16.537,-4.033 16.726,-2.774 16.096,-1.842C16.096,-1.842 14.82,0.043 14.043,1.835C13.933,2.089 13.827,2.418 13.744,2.701" style="fill:rgb(3,4,5);"/>
                </g>
            </g>
            <g id="Väike-logo" serif:id="Väike logo">
            </g>
            <g id="TEXT">
            </g>
            <g id="QR">
            </g>
        </g>
    </g>
</svg>
